<svg version="1.1" xmlns="http://www.w3.org/2000/svg" xmlns:xlink="http://www.w3.org/1999/xlink" width="31.875" height="31.875" viewBox="0,0,31.875,31.875"><g transform="translate(-224.0625,-164.0625)"><g data-paper-data="{&quot;isPaintingLayer&quot;:true}" fill-rule="nonzero" stroke-linecap="butt" stroke-linejoin="miter" stroke-miterlimit="10" stroke-dasharray="" stroke-dashoffset="0" style="mix-blend-mode: normal"><path d="M236.23828,183.21762h7.44562c0,0 0.71221,7.15823 -1.36931,7.07689c-2.38716,-0.09329 -1.51827,-5.0433 -2.31071,-5.0433c-0.91423,0 0.11687,5.08135 -2.22513,5.0433c-1.97067,-0.03201 -1.54047,-7.07689 -1.54047,-7.07689z" fill="#5f5f78" stroke="#484865" stroke-width="1"/><path d="M236.03924,179.66562c0,-0.7946 1.2689,-2.36927 2.56202,-2.99101c0.46494,-0.22355 1.08667,-0.06781 1.43798,-0.06781c0.38459,0 1.11541,-0.20034 1.62445,0.0414c1.23619,0.58707 2.31673,2.05277 2.31673,2.78213c0,0.93955 0,2.8101 0,3.66834c0,0.27762 -0.19757,0.44931 -0.52942,0.44931c-1.59153,0 -6.2716,-0.00001 -7.05882,-0.00001c-0.22248,0 -0.35293,-0.17231 -0.35293,-0.4493c0,-0.27699 -0.00001,-2.52543 -0.00001,-3.43305z" fill="#5abeff" stroke="#3c8bcc" stroke-width="1"/><path d="M236.01963,173.54796c0,-2.12251 1.72063,-3.84314 3.84314,-3.84314c2.12251,0 3.84314,1.72063 3.84314,3.84314c0,2.12251 -1.72063,3.84314 -3.84314,3.84314c-2.12251,0 -3.84314,-1.72063 -3.84314,-3.84314z" fill="#e3d1c3" stroke="#cc8f8f" stroke-width="1"/><path d="M224.0625,195.9375v-31.875h31.875v31.875z" fill="none" stroke="none" stroke-width="0"/></g></g></svg>