<svg version="1.1" xmlns="http://www.w3.org/2000/svg" xmlns:xlink="http://www.w3.org/1999/xlink" width="63.875" height="63.875" viewBox="0,0,63.875,63.875"><g transform="translate(-208.0625,-148.0625)"><g data-paper-data="{&quot;isPaintingLayer&quot;:true}" fill-rule="nonzero" stroke-linecap="butt" stroke-linejoin="miter" stroke-miterlimit="10" stroke-dasharray="" stroke-dashoffset="0" style="mix-blend-mode: normal"><path d="" fill="#00cece" stroke="#006c6f" stroke-width="1"/><path d="" fill="#00cece" stroke="#006c6f" stroke-width="1"/><path d="" fill="#00cece" stroke="#008e93" stroke-width="1"/><path d="M234.49915,173.54797c0,-2.96225 2.40138,-5.36364 5.36364,-5.36364c2.96225,0 5.36364,2.40138 5.36364,5.36364c0,0.6016 -0.55359,1.67502 -0.73627,3.0038c-0.12442,0.90505 1.04819,1.18801 1.00609,2.27487c-0.08897,2.2968 0.2046,9.00238 -0.82114,11.26201c-1.21637,2.67958 -3.75394,1.26046 -4.81232,1.26046c-0.7706,0 -3.05572,1.09331 -4.09498,-0.57445c-1.52905,-2.45375 -1.73767,-8.76087 -1.72591,-11.91817c0.00378,-1.01601 1.22043,-1.23335 1.09313,-2.09703c-0.23449,-1.59094 -0.63587,-2.52583 -0.63587,-3.21149z" fill="none" stroke="#0089b8" stroke-width="1"/><path d="M208.0625,211.9375v-63.875h63.875v63.875z" fill="none" stroke="none" stroke-width="0"/></g></g></svg>