<svg version="1.1" xmlns="http://www.w3.org/2000/svg" xmlns:xlink="http://www.w3.org/1999/xlink" width="31.45198" height="31.45196" viewBox="0,0,31.45198,31.45196"><g transform="translate(-224.27401,-164.27405)"><g data-paper-data="{&quot;isPaintingLayer&quot;:true}" fill-rule="nonzero" stroke-linejoin="miter" stroke-miterlimit="10" stroke-dasharray="" stroke-dashoffset="0" style="mix-blend-mode: normal"><path d="M239.84925,177.63266c0,0 -0.25225,-0.86584 0.35357,-2.17883" fill="none" stroke="#171717" stroke-width="1" stroke-linecap="round"/><path d="M237.65447,180.00001c0,-1.2954 1.05013,-2.34553 2.34553,-2.34553c1.2954,0 2.34553,1.05013 2.34553,2.34553c0,1.2954 -1.05013,2.34553 -2.34553,2.34553c-1.2954,0 -2.34553,-1.05013 -2.34553,-2.34553z" fill="#2e2e2e" stroke="#171717" stroke-width="1" stroke-linecap="butt"/><path d="M240.66109,175.18989l0.57347,-0.25807" fill="none" stroke="#ff0000" stroke-width="1.5" stroke-linecap="round"/><path d="M239.34093,179.34093l1.31815,1.31815" fill="none" stroke="#ff0000" stroke-width="1" stroke-linecap="round"/><path d="M239.34092,180.65908l1.31815,-1.31815" fill="none" stroke="#ff0000" stroke-width="1" stroke-linecap="round"/><path d="M224.27401,180.00002c0,-8.68524 7.04075,-15.72597 15.72599,-15.72597c8.68524,0 15.72599,7.04076 15.72599,15.72597c0,8.68524 -7.04075,15.72599 -15.72599,15.72599c-8.68524,0 -15.72599,-7.04075 -15.72599,-15.72599z" fill="none" stroke="#003ab8" stroke-width="0" stroke-linecap="butt"/></g></g></svg>