<svg version="1.1" xmlns="http://www.w3.org/2000/svg" xmlns:xlink="http://www.w3.org/1999/xlink" width="31.45198" height="31.45196" viewBox="0,0,31.45198,31.45196"><g transform="translate(-224.27401,-164.27405)"><g data-paper-data="{&quot;isPaintingLayer&quot;:true}" fill-rule="nonzero" stroke-width="0" stroke-linecap="butt" stroke-linejoin="miter" stroke-miterlimit="10" stroke-dasharray="" stroke-dashoffset="0" style="mix-blend-mode: normal"><path d="M224.27401,180.00002c0,-8.68524 7.04075,-15.72597 15.72599,-15.72597c8.68524,0 15.72599,7.04076 15.72599,15.72597c0,8.68524 -7.04075,15.72599 -15.72599,15.72599c-8.68524,0 -15.72599,-7.04075 -15.72599,-15.72599z" fill="none" stroke="#003ab8"/><path d="M226,180c0,-7.73199 6.26801,-14 14,-14c7.73199,0 14,6.26801 14,14c0,7.73199 -6.26801,14 -14,14c-7.73199,0 -14,-6.26801 -14,-14z" fill="#ff0000" stroke="#ff0000"/><path d="M229.75,180c0,-5.66092 4.58908,-10.25 10.25,-10.25c5.66092,0 10.25,4.58908 10.25,10.25c0,5.66092 -4.58908,10.25 -10.25,10.25c-5.66092,0 -10.25,-4.58908 -10.25,-10.25z" fill="#ff6f00" stroke="#ff0000"/><path d="M234.25,180c0,-3.17564 2.57436,-5.75 5.75,-5.75c3.17564,0 5.75,2.57436 5.75,5.75c0,3.17564 -2.57436,5.75 -5.75,5.75c-3.17564,0 -5.75,-2.57436 -5.75,-5.75z" fill="#ffad00" stroke="#ff0000"/></g></g></svg>