<svg version="1.1" xmlns="http://www.w3.org/2000/svg" xmlns:xlink="http://www.w3.org/1999/xlink" width="31.45198" height="31.45196" viewBox="0,0,31.45198,31.45196"><g transform="translate(-224.27401,-164.27405)"><g data-paper-data="{&quot;isPaintingLayer&quot;:true}" fill-rule="nonzero" stroke-linecap="butt" stroke-linejoin="miter" stroke-miterlimit="10" stroke-dasharray="" stroke-dashoffset="0" style="mix-blend-mode: normal"><path d="M224.27401,180.00002c0,-8.68523 7.04076,-15.72597 15.72599,-15.72597c8.68523,0 15.72599,7.04076 15.72599,15.72597c0,8.68523 -7.04076,15.72599 -15.72599,15.72599c-8.68523,0 -15.72599,-7.04076 -15.72599,-15.72599z" fill="none" stroke="#003ab8" stroke-width="0"/><path d="M238.44294,178.54566c0.71367,-0.74043 0.44746,-2.46928 1.55707,-2.46928c1.15992,0 0.91138,1.7942 1.62969,2.59434c0.62365,0.69469 2.29391,0.32223 2.29391,1.32926c0,0.9707 -1.84721,0.54555 -2.43119,1.23056c-0.71967,0.84418 -0.29617,2.69305 -1.49241,2.69305c-1.06816,0 -0.65517,-1.80831 -1.36267,-2.50074c-0.7278,-0.71227 -2.56094,-0.32409 -2.56094,-1.42287c0,-1.09878 1.68647,-0.74876 2.36653,-1.45433z" fill="#ff6666" stroke="#db0000" stroke-width="1"/></g></g></svg>