<svg version="1.1" xmlns="http://www.w3.org/2000/svg" xmlns:xlink="http://www.w3.org/1999/xlink" width="484" height="334.95973" viewBox="0,0,484,334.95973"><defs><linearGradient x1="465.5" y1="26.64515" x2="465.5" y2="42.64776" gradientUnits="userSpaceOnUse" id="color-1"><stop offset="0" stop-color="#505050" stop-opacity="0"/><stop offset="1" stop-color="#505050"/></linearGradient><linearGradient x1="465.5" y1="26.64515" x2="465.5" y2="42.64776" gradientUnits="userSpaceOnUse" id="color-2"><stop offset="0" stop-color="#505050" stop-opacity="0"/><stop offset="1" stop-color="#505050"/></linearGradient><linearGradient x1="14.5" y1="26.64514" x2="14.5" y2="42.64775" gradientUnits="userSpaceOnUse" id="color-3"><stop offset="0" stop-color="#505050" stop-opacity="0"/><stop offset="1" stop-color="#505050"/></linearGradient><linearGradient x1="14.5" y1="26.64514" x2="14.5" y2="42.64775" gradientUnits="userSpaceOnUse" id="color-4"><stop offset="0" stop-color="#505050" stop-opacity="0"/><stop offset="1" stop-color="#505050"/></linearGradient></defs><g transform="translate(2,-25.39514)"><g data-paper-data="{&quot;isPaintingLayer&quot;:true}" fill-rule="nonzero" stroke-linejoin="miter" stroke-miterlimit="10" stroke-dasharray="" stroke-dashoffset="0" style="mix-blend-mode: normal"><path d="M460,337.64532c0,-2.29363 0,-4.80143 0,-6.16667c0,-1.1329 1.61372,-4.86351 5.41666,-4.83333c3.51752,0.02792 5.58334,3.009 5.58334,5c0,1.62946 0,4.14307 0,6.66666c0,2.05 -2.21206,4.24897 -5.75,4.33334c-3.79238,0.09044 -5.25,-2.35791 -5.25,-5z" fill="none" stroke="#505050" stroke-width="2.5" stroke-linecap="butt"/><path d="M460,337.64531c0,-2.29363 0,-4.80143 0,-6.16667c0,-1.1329 1.61372,-4.86351 5.41666,-4.83333c3.51752,0.02792 5.58334,3.009 5.58334,5c0,1.62946 0,4.14307 0,6.66666c0,2.05 -2.21206,4.24897 -5.75,4.33334c-3.79238,0.09044 -5.25,-2.35791 -5.25,-5z" fill="none" stroke="#505050" stroke-width="2.5" stroke-linecap="butt"/><path d="M461.83334,324.97865c0,-2.29363 0,-4.80143 0,-6.16667c0,-1.1329 1.07581,-4.86351 3.61111,-4.83333c2.34501,0.02792 3.72222,3.009 3.72222,5c0,1.62946 0,4.14307 0,6.66667c0,2.05 -1.4747,4.24896 -3.83333,4.33333c-2.52826,0.09044 -3.5,-2.35791 -3.5,-5z" fill="none" stroke="#505050" stroke-width="2.5" stroke-linecap="butt"/><path d="M460,312.64532c0,-2.29363 0,-4.80143 0,-6.16667c0,-1.1329 1.61372,-4.86351 5.41666,-4.83333c3.51752,0.02792 5.58334,3.009 5.58334,5c0,1.62946 0,4.14307 0,6.66666c0,2.05 -2.21206,4.24897 -5.75,4.33334c-3.79238,0.09044 -5.25,-2.35791 -5.25,-5z" fill="none" stroke="#505050" stroke-width="2.5" stroke-linecap="butt"/><path d="M460,312.64532c0,-2.29363 0,-4.80143 0,-6.16667c0,-1.1329 1.61372,-4.86351 5.41666,-4.83333c3.51752,0.02792 5.58334,3.009 5.58334,5c0,1.62946 0,4.14307 0,6.66666c0,2.05 -2.21206,4.24897 -5.75,4.33334c-3.79238,0.09044 -5.25,-2.35791 -5.25,-5z" fill="none" stroke="#505050" stroke-width="2.5" stroke-linecap="butt"/><path d="M461.83334,299.97865c0,-2.29363 0,-4.80143 0,-6.16666c0,-1.1329 1.07581,-4.86352 3.61111,-4.83334c2.34501,0.02792 3.72222,3.009 3.72222,5c0,1.62946 0,4.14307 0,6.66667c0,2.05 -1.4747,4.24896 -3.83333,4.33333c-2.52826,0.09044 -3.5,-2.35791 -3.5,-5z" fill="none" stroke="#505050" stroke-width="2.5" stroke-linecap="butt"/><path d="M460,287.64532c0,-2.29363 0,-4.80143 0,-6.16667c0,-1.1329 1.61372,-4.86351 5.41666,-4.83333c3.51752,0.02792 5.58334,3.009 5.58334,5c0,1.62946 0,4.14307 0,6.66666c0,2.05 -2.21206,4.24897 -5.75,4.33334c-3.79238,0.09044 -5.25,-2.35791 -5.25,-5z" fill="none" stroke="#505050" stroke-width="2.5" stroke-linecap="butt"/><path d="M460,287.64532c0,-2.29363 0,-4.80143 0,-6.16667c0,-1.1329 1.61372,-4.86351 5.41666,-4.83333c3.51752,0.02792 5.58334,3.009 5.58334,5c0,1.62946 0,4.14307 0,6.66666c0,2.05 -2.21206,4.24897 -5.75,4.33334c-3.79238,0.09044 -5.25,-2.35791 -5.25,-5z" fill="none" stroke="#505050" stroke-width="2.5" stroke-linecap="butt"/><path d="M461.83334,274.97865c0,-2.29363 0,-4.80143 0,-6.16666c0,-1.1329 1.07581,-4.86352 3.61111,-4.83334c2.34501,0.02792 3.72222,3.009 3.72222,5c0,1.62946 0,4.14307 0,6.66667c0,2.05 -1.4747,4.24896 -3.83333,4.33333c-2.52826,0.09044 -3.5,-2.35791 -3.5,-5z" fill="none" stroke="#505050" stroke-width="2.5" stroke-linecap="butt"/><path d="M460,262.64532c0,-2.29363 0,-4.80143 0,-6.16667c0,-1.1329 1.61372,-4.86351 5.41666,-4.83333c3.51752,0.02792 5.58334,3.009 5.58334,5c0,1.62946 0,4.14307 0,6.66666c0,2.05 -2.21206,4.24897 -5.75,4.33334c-3.79238,0.09044 -5.25,-2.35791 -5.25,-5z" fill="none" stroke="#505050" stroke-width="2.5" stroke-linecap="butt"/><path d="M460,262.64532c0,-2.29363 0,-4.80143 0,-6.16667c0,-1.1329 1.61372,-4.86351 5.41666,-4.83333c3.51752,0.02792 5.58334,3.009 5.58334,5c0,1.62946 0,4.14307 0,6.66666c0,2.05 -2.21206,4.24897 -5.75,4.33334c-3.79238,0.09044 -5.25,-2.35791 -5.25,-5z" fill="none" stroke="#505050" stroke-width="2.5" stroke-linecap="butt"/><path d="M461.83334,249.97865c0,-2.29364 0,-4.80143 0,-6.16667c0,-1.1329 1.07581,-4.86352 3.61111,-4.83334c2.34501,0.02792 3.72222,3.009 3.72222,5c0,1.62947 0,4.14307 0,6.66666c0,2.05 -1.4747,4.24896 -3.83333,4.33334c-2.52826,0.09044 -3.5,-2.35792 -3.5,-5z" fill="none" stroke="#505050" stroke-width="2.5" stroke-linecap="butt"/><path d="M460,237.64532c0,-2.29363 0,-4.80143 0,-6.16667c0,-1.1329 1.61372,-4.86351 5.41666,-4.83333c3.51752,0.02792 5.58334,3.009 5.58334,5c0,1.62947 0,4.14307 0,6.66666c0,2.05 -2.21206,4.24896 -5.75,4.33334c-3.79238,0.09044 -5.25,-2.35791 -5.25,-5z" fill="none" stroke="#505050" stroke-width="2.5" stroke-linecap="butt"/><path d="M460,237.64532c0,-2.29363 0,-4.80143 0,-6.16667c0,-1.1329 1.61372,-4.86351 5.41666,-4.83333c3.51752,0.02792 5.58334,3.009 5.58334,5c0,1.62947 0,4.14307 0,6.66666c0,2.05 -2.21206,4.24896 -5.75,4.33334c-3.79238,0.09044 -5.25,-2.35791 -5.25,-5z" fill="none" stroke="#505050" stroke-width="2.5" stroke-linecap="butt"/><path d="M461.83334,224.97865c0,-2.29363 0,-4.80143 0,-6.16666c0,-1.1329 1.07581,-4.86352 3.61111,-4.83334c2.34501,0.02792 3.72222,3.009 3.72222,5c0,1.62947 0,4.14307 0,6.66667c0,2.05 -1.4747,4.24896 -3.83333,4.33333c-2.52826,0.09044 -3.5,-2.35791 -3.5,-5z" fill="none" stroke="#505050" stroke-width="2.5" stroke-linecap="butt"/><path d="M460,212.64532c0,-2.29363 0,-4.80143 0,-6.16667c0,-1.1329 1.61372,-4.86351 5.41666,-4.83333c3.51752,0.02792 5.58334,3.009 5.58334,5c0,1.62947 0,4.14307 0,6.66666c0,2.05 -2.21206,4.24896 -5.75,4.33334c-3.79238,0.09044 -5.25,-2.35791 -5.25,-5z" fill="none" stroke="#505050" stroke-width="2.5" stroke-linecap="butt"/><path d="M460,212.64532c0,-2.29363 0,-4.80143 0,-6.16667c0,-1.1329 1.61372,-4.86351 5.41666,-4.83333c3.51752,0.02792 5.58334,3.009 5.58334,5c0,1.62947 0,4.14307 0,6.66666c0,2.05 -2.21206,4.24896 -5.75,4.33334c-3.79238,0.09044 -5.25,-2.35791 -5.25,-5z" fill="none" stroke="#505050" stroke-width="2.5" stroke-linecap="butt"/><path d="M461.83334,199.97865c0,-2.29363 0,-4.80143 0,-6.16666c0,-1.1329 1.07581,-4.86352 3.61111,-4.83334c2.34501,0.02792 3.72222,3.009 3.72222,5c0,1.62947 0,4.14307 0,6.66667c0,2.05 -1.4747,4.24896 -3.83333,4.33333c-2.52826,0.09044 -3.5,-2.35791 -3.5,-5z" fill="none" stroke="#505050" stroke-width="2.5" stroke-linecap="butt"/><path d="M460,187.64532c0,-2.29363 0,-4.80143 0,-6.16667c0,-1.1329 1.61372,-4.86351 5.41666,-4.83333c3.51752,0.02792 5.58334,3.009 5.58334,5c0,1.62947 0,4.14307 0,6.66666c0,2.05 -2.21206,4.24896 -5.75,4.33334c-3.79238,0.09044 -5.25,-2.35791 -5.25,-5z" fill="none" stroke="#505050" stroke-width="2.5" stroke-linecap="butt"/><path d="M460,187.64532c0,-2.29363 0,-4.80143 0,-6.16667c0,-1.1329 1.61372,-4.86351 5.41666,-4.83333c3.51752,0.02792 5.58334,3.009 5.58334,5c0,1.62947 0,4.14307 0,6.66666c0,2.05 -2.21206,4.24896 -5.75,4.33334c-3.79238,0.09044 -5.25,-2.35791 -5.25,-5z" fill="none" stroke="#505050" stroke-width="2.5" stroke-linecap="butt"/><path d="M461.83334,174.97865c0,-2.29363 0,-4.80143 0,-6.16666c0,-1.1329 1.07581,-4.86352 3.61111,-4.83334c2.34501,0.02792 3.72222,3.009 3.72222,5c0,1.62947 0,4.14307 0,6.66667c0,2.05 -1.4747,4.24896 -3.83333,4.33333c-2.52826,0.09044 -3.5,-2.35791 -3.5,-5z" fill="none" stroke="#505050" stroke-width="2.5" stroke-linecap="butt"/><path d="M460,162.64532c0,-2.29363 0,-4.80143 0,-6.16667c0,-1.1329 1.61372,-4.86351 5.41666,-4.83333c3.51752,0.02792 5.58334,3.009 5.58334,5c0,1.62947 0,4.14307 0,6.66666c0,2.05 -2.21206,4.24896 -5.75,4.33334c-3.79238,0.09044 -5.25,-2.35791 -5.25,-5z" fill="none" stroke="#505050" stroke-width="2.5" stroke-linecap="butt"/><path d="M460,162.64532c0,-2.29363 0,-4.80143 0,-6.16667c0,-1.1329 1.61372,-4.86351 5.41666,-4.83333c3.51752,0.02792 5.58334,3.009 5.58334,5c0,1.62947 0,4.14307 0,6.66666c0,2.05 -2.21206,4.24896 -5.75,4.33334c-3.79238,0.09044 -5.25,-2.35791 -5.25,-5z" fill="none" stroke="#505050" stroke-width="2.5" stroke-linecap="butt"/><path d="M461.83334,149.97865c0,-2.29363 0,-4.80143 0,-6.16666c0,-1.1329 1.07581,-4.86352 3.61111,-4.83334c2.34501,0.02792 3.72222,3.009 3.72222,5c0,1.62947 0,4.14307 0,6.66667c0,2.05 -1.4747,4.24896 -3.83333,4.33333c-2.52826,0.09044 -3.5,-2.35791 -3.5,-5z" fill="none" stroke="#505050" stroke-width="2.5" stroke-linecap="butt"/><path d="M460,137.64532c0,-2.29363 0,-4.80143 0,-6.16667c0,-1.1329 1.61372,-4.86352 5.41666,-4.83333c3.51752,0.02791 5.58334,3.009 5.58334,5c0,1.62947 0,4.14307 0,6.66666c0,2.05 -2.21206,4.24896 -5.75,4.33334c-3.79238,0.09044 -5.25,-2.35791 -5.25,-5z" fill="none" stroke="#505050" stroke-width="2.5" stroke-linecap="butt"/><path d="M460,137.64532c0,-2.29363 0,-4.80143 0,-6.16667c0,-1.1329 1.61372,-4.86352 5.41666,-4.83333c3.51752,0.02791 5.58334,3.009 5.58334,5c0,1.62947 0,4.14307 0,6.66666c0,2.05 -2.21206,4.24896 -5.75,4.33334c-3.79238,0.09044 -5.25,-2.35791 -5.25,-5z" fill="none" stroke="#505050" stroke-width="2.5" stroke-linecap="butt"/><path d="M461.83334,124.97865c0,-2.29363 0,-4.80143 0,-6.16666c0,-1.1329 1.07581,-4.86352 3.61111,-4.83334c2.34501,0.02791 3.72222,3.009 3.72222,5c0,1.62946 0,4.14307 0,6.66667c0,2.05 -1.4747,4.24896 -3.83333,4.33333c-2.52826,0.09044 -3.5,-2.35791 -3.5,-5z" fill="none" stroke="#505050" stroke-width="2.5" stroke-linecap="butt"/><path d="M460,112.64532c0,-2.29363 0,-4.80143 0,-6.16666c0,-1.1329 1.61372,-4.86352 5.41666,-4.83334c3.51752,0.02791 5.58334,3.009 5.58334,5c0,1.62946 0,4.14307 0,6.66667c0,2.05 -2.21206,4.24896 -5.75,4.33333c-3.79238,0.09044 -5.25,-2.35792 -5.25,-5z" fill="none" stroke="#505050" stroke-width="2.5" stroke-linecap="butt"/><path d="M460,112.64532c0,-2.29363 0,-4.80143 0,-6.16666c0,-1.1329 1.61372,-4.86352 5.41666,-4.83334c3.51752,0.02791 5.58334,3.009 5.58334,5c0,1.62946 0,4.14307 0,6.66667c0,2.05 -2.21206,4.24896 -5.75,4.33333c-3.79238,0.09044 -5.25,-2.35792 -5.25,-5z" fill="none" stroke="#505050" stroke-width="2.5" stroke-linecap="butt"/><path d="M461.83334,99.97865c0,-2.29363 0,-4.80143 0,-6.16666c0,-1.1329 1.07581,-4.86352 3.61111,-4.83334c2.34501,0.02791 3.72222,3.009 3.72222,5c0,1.62946 0,4.14307 0,6.66666c0,2.05 -1.4747,4.24896 -3.83333,4.33334c-2.52826,0.09044 -3.5,-2.35792 -3.5,-5z" fill="none" stroke="#505050" stroke-width="2.5" stroke-linecap="butt"/><path d="M460,87.64532c0,-2.29363 0,-4.80143 0,-6.16666c0,-1.1329 1.61372,-4.86352 5.41666,-4.83334c3.51752,0.02791 5.58334,3.009 5.58334,5c0,1.62946 0,4.14307 0,6.66667c0,2.05 -2.21206,4.24896 -5.75,4.33333c-3.79238,0.09044 -5.25,-2.35792 -5.25,-5z" fill="none" stroke="#505050" stroke-width="2.5" stroke-linecap="butt"/><path d="M460,87.64532c0,-2.29363 0,-4.80143 0,-6.16666c0,-1.1329 1.61372,-4.86352 5.41666,-4.83334c3.51752,0.02791 5.58334,3.009 5.58334,5c0,1.62946 0,4.14307 0,6.66667c0,2.05 -2.21206,4.24896 -5.75,4.33333c-3.79238,0.09044 -5.25,-2.35792 -5.25,-5z" fill="none" stroke="#505050" stroke-width="2.5" stroke-linecap="butt"/><path d="M461.83334,74.97865c0,-2.29363 0,-4.80143 0,-6.16666c0,-1.1329 1.07581,-4.86352 3.61111,-4.83334c2.34501,0.02791 3.72222,3.009 3.72222,5c0,1.62946 0,4.14307 0,6.66666c0,2.05 -1.4747,4.24896 -3.83333,4.33334c-2.52826,0.09044 -3.5,-2.35792 -3.5,-5z" fill="none" stroke="#505050" stroke-width="2.5" stroke-linecap="butt"/><path d="M460,62.64532c0,-2.29363 0,-4.80143 0,-6.16666c0,-1.1329 1.61372,-4.86352 5.41666,-4.83334c3.51752,0.02792 5.58334,3.009 5.58334,5c0,1.62947 0,4.14307 0,6.66667c0,2.05 -2.21206,4.24896 -5.75,4.33333c-3.79238,0.09044 -5.25,-2.35792 -5.25,-5z" fill="none" stroke="#505050" stroke-width="2.5" stroke-linecap="butt"/><path d="M460,62.64532c0,-2.29363 0,-4.80143 0,-6.16666c0,-1.1329 1.61372,-4.86352 5.41666,-4.83334c3.51752,0.02792 5.58334,3.009 5.58334,5c0,1.62947 0,4.14307 0,6.66667c0,2.05 -2.21206,4.24896 -5.75,4.33333c-3.79238,0.09044 -5.25,-2.35792 -5.25,-5z" fill="none" stroke="#505050" stroke-width="2.5" stroke-linecap="butt"/><path d="M461.83334,49.97865c0,-2.29364 0,-4.80143 0,-6.16667c0,-1.1329 1.07581,-4.86351 3.61111,-4.83333c2.34501,0.02792 3.72222,3.009 3.72222,5c0,1.62947 0,4.14307 0,6.66666c0,2.05 -1.4747,4.24897 -3.83333,4.33334c-2.52826,0.09044 -3.5,-2.35791 -3.5,-5z" fill="none" stroke="#505050" stroke-width="2.5" stroke-linecap="butt"/><path d="M460,37.64532c0,-2.29364 0,-4.80143 0,-6.16666c0,-1.1329 1.61372,-4.86351 5.41666,-4.83333c3.51752,0.02791 5.58334,3.009 5.58334,5c0,1.62947 0,4.14307 0,6.66667c0,2.05 -2.21206,4.24896 -5.75,4.33333c-3.79238,0.09044 -5.25,-2.35791 -5.25,-5z" fill="none" stroke="url(#color-1)" stroke-width="2.5" stroke-linecap="butt"/><path d="M460,37.64532c0,-2.29364 0,-4.80143 0,-6.16666c0,-1.1329 1.61372,-4.86351 5.41666,-4.83333c3.51752,0.02791 5.58334,3.009 5.58334,5c0,1.62947 0,4.14307 0,6.66667c0,2.05 -2.21206,4.24896 -5.75,4.33333c-3.79238,0.09044 -5.25,-2.35791 -5.25,-5z" fill="none" stroke="url(#color-2)" stroke-width="2.5" stroke-linecap="butt"/><path d="M9,337.64532c0,-2.29363 0,-4.80143 0,-6.16667c0,-1.1329 1.61372,-4.86352 5.41667,-4.83333c3.51752,0.02792 5.58334,3.009 5.58334,5c0,1.62946 0,4.14307 0,6.66666c0,2.05 -2.21206,4.24896 -5.75,4.33334c-3.79238,0.09044 -5.25,-2.35792 -5.25,-5z" fill="none" stroke="#505050" stroke-width="2.5" stroke-linecap="butt"/><path d="M9,337.64532c0,-2.29364 0,-4.80143 0,-6.16666c0,-1.1329 1.61372,-4.86352 5.41666,-4.83333c3.51751,0.02792 5.58334,3.009 5.58334,5c0,1.62946 0,4.14307 0,6.66666c0,2.05 -2.21206,4.24896 -5.75,4.33334c-3.79238,0.09044 -5.25,-2.35792 -5.25,-5z" fill="none" stroke="#505050" stroke-width="2.5" stroke-linecap="butt"/><path d="M0,358.35487v-20.5h480v20.5z" fill="#777777" stroke="#515151" stroke-width="4" stroke-linecap="butt"/><path d="M231.0625,353.29237l10.375,-10.375" fill="none" stroke="#6b6b6b" stroke-width="4" stroke-linecap="round"/><path d="M223.5625,353.29237l10.375,-10.375" fill="none" stroke="#6b6b6b" stroke-width="4" stroke-linecap="round"/><path d="M246.0625,353.29237l10.375,-10.375" fill="none" stroke="#6b6b6b" stroke-width="4" stroke-linecap="round"/><path d="M238.5625,353.29237l10.375,-10.375" fill="none" stroke="#6b6b6b" stroke-width="4" stroke-linecap="round"/><path d="M261.0625,353.29237l10.375,-10.375" fill="none" stroke="#6b6b6b" stroke-width="4" stroke-linecap="round"/><path d="M253.5625,353.29237l10.375,-10.375" fill="none" stroke="#6b6b6b" stroke-width="4" stroke-linecap="round"/><path d="M276.0625,353.29237l10.375,-10.375" fill="none" stroke="#6b6b6b" stroke-width="4" stroke-linecap="round"/><path d="M268.5625,353.29237l10.375,-10.375" fill="none" stroke="#6b6b6b" stroke-width="4" stroke-linecap="round"/><path d="M201.0625,353.29237l10.375,-10.375" fill="none" stroke="#6b6b6b" stroke-width="4" stroke-linecap="round"/><path d="M193.5625,353.29237l10.375,-10.375" fill="none" stroke="#6b6b6b" stroke-width="4" stroke-linecap="round"/><path d="M216.0625,353.29237l10.375,-10.375" fill="none" stroke="#6b6b6b" stroke-width="4" stroke-linecap="round"/><path d="M208.5625,353.29237l10.375,-10.375" fill="none" stroke="#6b6b6b" stroke-width="4" stroke-linecap="round"/><path d="M141.0625,353.29237l10.375,-10.375" fill="none" stroke="#6b6b6b" stroke-width="4" stroke-linecap="round"/><path d="M133.5625,353.29237l10.375,-10.375" fill="none" stroke="#6b6b6b" stroke-width="4" stroke-linecap="round"/><path d="M156.0625,353.29237l10.375,-10.375" fill="none" stroke="#6b6b6b" stroke-width="4" stroke-linecap="round"/><path d="M148.5625,353.29237l10.375,-10.375" fill="none" stroke="#6b6b6b" stroke-width="4" stroke-linecap="round"/><path d="M171.0625,353.29237l10.375,-10.375" fill="none" stroke="#6b6b6b" stroke-width="4" stroke-linecap="round"/><path d="M163.5625,353.29237l10.375,-10.375" fill="none" stroke="#6b6b6b" stroke-width="4" stroke-linecap="round"/><path d="M186.0625,353.29237l10.375,-10.375" fill="none" stroke="#6b6b6b" stroke-width="4" stroke-linecap="round"/><path d="M178.5625,353.29237l10.375,-10.375" fill="none" stroke="#6b6b6b" stroke-width="4" stroke-linecap="round"/><path d="M111.0625,353.29237l10.375,-10.375" fill="none" stroke="#6b6b6b" stroke-width="4" stroke-linecap="round"/><path d="M113.9375,342.91737l-10.375,10.375" fill="none" stroke="#6b6b6b" stroke-width="4" stroke-linecap="round"/><path d="M126.0625,353.29237l10.375,-10.375" fill="none" stroke="#6b6b6b" stroke-width="4" stroke-linecap="round"/><path d="M118.5625,353.29237l10.375,-10.375" fill="none" stroke="#6b6b6b" stroke-width="4" stroke-linecap="round"/><path d="M321.0625,353.29237l10.375,-10.375" fill="none" stroke="#6b6b6b" stroke-width="4" stroke-linecap="round"/><path d="M313.5625,353.29237l10.375,-10.375" fill="none" stroke="#6b6b6b" stroke-width="4" stroke-linecap="round"/><path d="M336.0625,353.29237l10.375,-10.375" fill="none" stroke="#6b6b6b" stroke-width="4" stroke-linecap="round"/><path d="M328.5625,353.29237l10.375,-10.375" fill="none" stroke="#6b6b6b" stroke-width="4" stroke-linecap="round"/><path d="M351.0625,353.29237l10.375,-10.375" fill="none" stroke="#6b6b6b" stroke-width="4" stroke-linecap="round"/><path d="M343.5625,353.29237l10.375,-10.375" fill="none" stroke="#6b6b6b" stroke-width="4" stroke-linecap="round"/><path d="M366.0625,353.29237l10.375,-10.375" fill="none" stroke="#6b6b6b" stroke-width="4" stroke-linecap="round"/><path d="M358.5625,353.29237l10.375,-10.375" fill="none" stroke="#6b6b6b" stroke-width="4" stroke-linecap="round"/><path d="M291.0625,353.29237l10.375,-10.375" fill="none" stroke="#6b6b6b" stroke-width="4" stroke-linecap="round"/><path d="M283.5625,353.29237l10.375,-10.375" fill="none" stroke="#6b6b6b" stroke-width="4" stroke-linecap="round"/><path d="M306.0625,353.29237l10.375,-10.375" fill="none" stroke="#6b6b6b" stroke-width="4" stroke-linecap="round"/><path d="M298.5625,353.29237l10.375,-10.375" fill="none" stroke="#6b6b6b" stroke-width="4" stroke-linecap="round"/><path d="M96.0625,353.29237l10.375,-10.375" fill="none" stroke="#6b6b6b" stroke-width="4" stroke-linecap="round"/><path d="M53.9375,342.91737l-10.375,10.375" fill="none" stroke="#6b6b6b" stroke-width="4" stroke-linecap="round"/><path d="M46.4375,342.91737l-10.375,10.375" fill="none" stroke="#6b6b6b" stroke-width="4" stroke-linecap="round"/><path d="M68.9375,342.91737l-10.375,10.375" fill="none" stroke="#6b6b6b" stroke-width="4" stroke-linecap="round"/><path d="M51.0625,353.29237l10.375,-10.375" fill="none" stroke="#6b6b6b" stroke-width="4" stroke-linecap="round"/><path d="M73.5625,353.29237l10.375,-10.375" fill="none" stroke="#6b6b6b" stroke-width="4" stroke-linecap="round"/><path d="M66.0625,353.29237l10.375,-10.375" fill="none" stroke="#6b6b6b" stroke-width="4" stroke-linecap="round"/><path d="M88.5625,353.29237l10.375,-10.375" fill="none" stroke="#6b6b6b" stroke-width="4" stroke-linecap="round"/><path d="M81.0625,353.29237l10.375,-10.375" fill="none" stroke="#6b6b6b" stroke-width="4" stroke-linecap="round"/><path d="M13.5625,353.29237l10.375,-10.375" fill="none" stroke="#6b6b6b" stroke-width="4" stroke-linecap="round"/><path d="M6.0625,353.29237l10.375,-10.375" fill="none" stroke="#6b6b6b" stroke-width="4" stroke-linecap="round"/><path d="M28.5625,353.29237l10.375,-10.375" fill="none" stroke="#6b6b6b" stroke-width="4" stroke-linecap="round"/><path d="M21.0625,353.29237l10.375,-10.375" fill="none" stroke="#6b6b6b" stroke-width="4" stroke-linecap="round"/><path d="M463.5625,353.29237l10.375,-10.375" fill="none" stroke="#6b6b6b" stroke-width="4" stroke-linecap="round"/><path d="M411.0625,353.29237l10.375,-10.375" fill="none" stroke="#6b6b6b" stroke-width="4" stroke-linecap="round"/><path d="M403.5625,353.29237l10.375,-10.375" fill="none" stroke="#6b6b6b" stroke-width="4" stroke-linecap="round"/><path d="M426.0625,353.29237l10.375,-10.375" fill="none" stroke="#6b6b6b" stroke-width="4" stroke-linecap="round"/><path d="M418.5625,353.29237l10.375,-10.375" fill="none" stroke="#6b6b6b" stroke-width="4" stroke-linecap="round"/><path d="M441.0625,353.29237l10.375,-10.375" fill="none" stroke="#6b6b6b" stroke-width="4" stroke-linecap="round"/><path d="M433.5625,353.29237l10.375,-10.375" fill="none" stroke="#6b6b6b" stroke-width="4" stroke-linecap="round"/><path d="M456.0625,353.29237l10.375,-10.375" fill="none" stroke="#6b6b6b" stroke-width="4" stroke-linecap="round"/><path d="M448.5625,353.29237l10.375,-10.375" fill="none" stroke="#6b6b6b" stroke-width="4" stroke-linecap="round"/><path d="M381.0625,353.29237l10.375,-10.375" fill="none" stroke="#6b6b6b" stroke-width="4" stroke-linecap="round"/><path d="M373.5625,353.29237l10.375,-10.375" fill="none" stroke="#6b6b6b" stroke-width="4" stroke-linecap="round"/><path d="M396.0625,353.29237l10.375,-10.375" fill="none" stroke="#6b6b6b" stroke-width="4" stroke-linecap="round"/><path d="M388.5625,353.29237l10.375,-10.375" fill="none" stroke="#6b6b6b" stroke-width="4" stroke-linecap="round"/><path d="M10.83333,324.97865c0,-2.29363 0,-4.80143 0,-6.16667c0,-1.1329 1.07581,-4.86352 3.61111,-4.83333c2.34501,0.02792 3.72222,3.009 3.72222,5c0,1.62947 0,4.14307 0,6.66667c0,2.05 -1.47471,4.24896 -3.83333,4.33333c-2.52825,0.09044 -3.5,-2.35791 -3.5,-5z" fill="none" stroke="#505050" stroke-width="2.5" stroke-linecap="butt"/><path d="M9,312.64532c0,-2.29363 0,-4.80143 0,-6.16667c0,-1.1329 1.61372,-4.86352 5.41667,-4.83333c3.51752,0.02792 5.58334,3.009 5.58334,5c0,1.62946 0,4.14307 0,6.66666c0,2.05 -2.21206,4.24896 -5.75,4.33334c-3.79238,0.09044 -5.25,-2.35792 -5.25,-5z" fill="none" stroke="#505050" stroke-width="2.5" stroke-linecap="butt"/><path d="M9,312.64532c0,-2.29363 0,-4.80143 0,-6.16667c0,-1.1329 1.61372,-4.86352 5.41667,-4.83333c3.51752,0.02792 5.58334,3.009 5.58334,5c0,1.62946 0,4.14307 0,6.66666c0,2.05 -2.21206,4.24896 -5.75,4.33334c-3.79238,0.09044 -5.25,-2.35792 -5.25,-5z" fill="none" stroke="#505050" stroke-width="2.5" stroke-linecap="butt"/><path d="M10.83334,299.97865c0,-2.29363 0,-4.80143 0,-6.16667c0,-1.1329 1.07582,-4.86352 3.61111,-4.83333c2.34501,0.02792 3.72222,3.009 3.72222,5c0,1.62947 0,4.14307 0,6.66667c0,2.05 -1.4747,4.24896 -3.83333,4.33333c-2.52825,0.09044 -3.5,-2.35791 -3.5,-5z" fill="none" stroke="#505050" stroke-width="2.5" stroke-linecap="butt"/><path d="M9,287.64532c0,-2.29363 0,-4.80143 0,-6.16667c0,-1.1329 1.61372,-4.86352 5.41667,-4.83333c3.51752,0.02792 5.58334,3.009 5.58334,5c0,1.62946 0,4.14307 0,6.66666c0,2.05 -2.21206,4.24896 -5.75,4.33334c-3.79238,0.09044 -5.25,-2.35792 -5.25,-5z" fill="none" stroke="#505050" stroke-width="2.5" stroke-linecap="butt"/><path d="M9,287.64532c0,-2.29363 0,-4.80143 0,-6.16667c0,-1.1329 1.61372,-4.86352 5.41667,-4.83333c3.51752,0.02792 5.58334,3.009 5.58334,5c0,1.62946 0,4.14307 0,6.66666c0,2.05 -2.21206,4.24896 -5.75,4.33334c-3.79238,0.09044 -5.25,-2.35792 -5.25,-5z" fill="none" stroke="#505050" stroke-width="2.5" stroke-linecap="butt"/><path d="M10.83334,274.97865c0,-2.29363 0,-4.80143 0,-6.16667c0,-1.1329 1.07582,-4.86352 3.61111,-4.83333c2.34501,0.02792 3.72222,3.009 3.72222,5c0,1.62947 0,4.14307 0,6.66667c0,2.05 -1.4747,4.24896 -3.83333,4.33333c-2.52825,0.09044 -3.5,-2.35791 -3.5,-5z" fill="none" stroke="#505050" stroke-width="2.5" stroke-linecap="butt"/><path d="M9,262.64532c0,-2.29364 0,-4.80143 0,-6.16667c0,-1.1329 1.61372,-4.86352 5.41667,-4.83334c3.51752,0.02792 5.58334,3.009 5.58334,5c0,1.62947 0,4.14307 0,6.66667c0,2.05 -2.21206,4.24896 -5.75,4.33334c-3.79238,0.09044 -5.25,-2.35792 -5.25,-5z" fill="none" stroke="#505050" stroke-width="2.5" stroke-linecap="butt"/><path d="M9,262.64532c0,-2.29364 0,-4.80143 0,-6.16667c0,-1.1329 1.61372,-4.86352 5.41667,-4.83334c3.51752,0.02792 5.58334,3.009 5.58334,5c0,1.62947 0,4.14307 0,6.66667c0,2.05 -2.21206,4.24896 -5.75,4.33334c-3.79238,0.09044 -5.25,-2.35792 -5.25,-5z" fill="none" stroke="#505050" stroke-width="2.5" stroke-linecap="butt"/><path d="M10.83334,249.97865c0,-2.29364 0,-4.80143 0,-6.16667c0,-1.1329 1.07582,-4.86352 3.61111,-4.83333c2.34501,0.02791 3.72222,3.009 3.72222,5c0,1.62946 0,4.14307 0,6.66666c0,2.05 -1.4747,4.24896 -3.83333,4.33334c-2.52825,0.09044 -3.5,-2.35792 -3.5,-5z" fill="none" stroke="#505050" stroke-width="2.5" stroke-linecap="butt"/><path d="M9,237.64532c0,-2.29363 0,-4.80143 0,-6.16666c0,-1.1329 1.61372,-4.86352 5.41667,-4.83334c3.51752,0.02792 5.58334,3.009 5.58334,5c0,1.62947 0,4.14307 0,6.66666c0,2.05 -2.21206,4.24896 -5.75,4.33334c-3.79238,0.09044 -5.25,-2.35791 -5.25,-5z" fill="none" stroke="#505050" stroke-width="2.5" stroke-linecap="butt"/><path d="M9,237.64532c0,-2.29363 0,-4.80143 0,-6.16666c0,-1.1329 1.61372,-4.86352 5.41667,-4.83334c3.51752,0.02792 5.58334,3.009 5.58334,5c0,1.62947 0,4.14307 0,6.66666c0,2.05 -2.21206,4.24896 -5.75,4.33334c-3.79238,0.09044 -5.25,-2.35791 -5.25,-5z" fill="none" stroke="#505050" stroke-width="2.5" stroke-linecap="butt"/><path d="M10.83334,224.97865c0,-2.29363 0,-4.80143 0,-6.16667c0,-1.1329 1.07582,-4.86351 3.61111,-4.83333c2.34501,0.02792 3.72222,3.009 3.72222,5c0,1.62947 0,4.14307 0,6.66666c0,2.05 -1.4747,4.24896 -3.83333,4.33334c-2.52825,0.09044 -3.5,-2.35791 -3.5,-5z" fill="none" stroke="#505050" stroke-width="2.5" stroke-linecap="butt"/><path d="M9,212.64532c0,-2.29363 0,-4.80143 0,-6.16666c0,-1.1329 1.61372,-4.86352 5.41667,-4.83334c3.51752,0.02792 5.58334,3.009 5.58334,5c0,1.62947 0,4.14307 0,6.66666c0,2.05 -2.21206,4.24896 -5.75,4.33334c-3.79238,0.09044 -5.25,-2.35791 -5.25,-5z" fill="none" stroke="#505050" stroke-width="2.5" stroke-linecap="butt"/><path d="M9,212.64532c0,-2.29363 0,-4.80143 0,-6.16666c0,-1.1329 1.61372,-4.86352 5.41667,-4.83334c3.51752,0.02792 5.58334,3.009 5.58334,5c0,1.62947 0,4.14307 0,6.66666c0,2.05 -2.21206,4.24896 -5.75,4.33334c-3.79238,0.09044 -5.25,-2.35791 -5.25,-5z" fill="none" stroke="#505050" stroke-width="2.5" stroke-linecap="butt"/><path d="M10.83334,199.97865c0,-2.29363 0,-4.80143 0,-6.16667c0,-1.1329 1.07582,-4.86352 3.61111,-4.83333c2.34501,0.02791 3.72222,3.009 3.72222,5c0,1.62946 0,4.14307 0,6.66666c0,2.05 -1.4747,4.24896 -3.83333,4.33334c-2.52825,0.09044 -3.5,-2.35791 -3.5,-5z" fill="none" stroke="#505050" stroke-width="2.5" stroke-linecap="butt"/><path d="M9,187.64532c0,-2.29363 0,-4.80143 0,-6.16666c0,-1.1329 1.61372,-4.86352 5.41667,-4.83334c3.51752,0.02791 5.58334,3.009 5.58334,5c0,1.62947 0,4.14307 0,6.66666c0,2.05 -2.21206,4.24896 -5.75,4.33334c-3.79238,0.09044 -5.25,-2.35792 -5.25,-5z" fill="none" stroke="#505050" stroke-width="2.5" stroke-linecap="butt"/><path d="M9,187.64532c0,-2.29363 0,-4.80143 0,-6.16666c0,-1.1329 1.61372,-4.86352 5.41667,-4.83334c3.51752,0.02791 5.58334,3.009 5.58334,5c0,1.62947 0,4.14307 0,6.66666c0,2.05 -2.21206,4.24896 -5.75,4.33334c-3.79238,0.09044 -5.25,-2.35792 -5.25,-5z" fill="none" stroke="#505050" stroke-width="2.5" stroke-linecap="butt"/><path d="M10.83334,174.97865c0,-2.29363 0,-4.80143 0,-6.16667c0,-1.1329 1.07582,-4.86351 3.61111,-4.83333c2.34501,0.02792 3.72222,3.009 3.72222,5c0,1.62946 0,4.14307 0,6.66666c0,2.05 -1.4747,4.24896 -3.83333,4.33334c-2.52825,0.09044 -3.5,-2.35791 -3.5,-5z" fill="none" stroke="#505050" stroke-width="2.5" stroke-linecap="butt"/><path d="M9,162.64532c0,-2.29364 0,-4.80143 0,-6.16666c0,-1.1329 1.61372,-4.86352 5.41667,-4.83334c3.51752,0.02791 5.58334,3.009 5.58334,5c0,1.62947 0,4.14307 0,6.66666c0,2.05 -2.21206,4.24896 -5.75,4.33334c-3.79238,0.09044 -5.25,-2.35792 -5.25,-5z" fill="none" stroke="#505050" stroke-width="2.5" stroke-linecap="butt"/><path d="M9,162.64532c0,-2.29364 0,-4.80143 0,-6.16666c0,-1.1329 1.61372,-4.86352 5.41667,-4.83334c3.51752,0.02791 5.58334,3.009 5.58334,5c0,1.62947 0,4.14307 0,6.66666c0,2.05 -2.21206,4.24896 -5.75,4.33334c-3.79238,0.09044 -5.25,-2.35792 -5.25,-5z" fill="none" stroke="#505050" stroke-width="2.5" stroke-linecap="butt"/><path d="M10.83334,149.97865c0,-2.29363 0,-4.80143 0,-6.16667c0,-1.1329 1.07582,-4.86352 3.61111,-4.83333c2.34501,0.02792 3.72222,3.009 3.72222,5c0,1.62946 0,4.14307 0,6.66666c0,2.05 -1.4747,4.24896 -3.83333,4.33334c-2.52825,0.09044 -3.5,-2.35792 -3.5,-5z" fill="none" stroke="#505050" stroke-width="2.5" stroke-linecap="butt"/><path d="M9,137.64532c0,-2.29363 0,-4.80143 0,-6.16666c0,-1.1329 1.61372,-4.86352 5.41667,-4.83334c3.51751,0.02792 5.58333,3.009 5.58333,5c0,1.62947 0,4.14307 0,6.66666c0,2.05 -2.21206,4.24896 -5.75,4.33334c-3.79238,0.09044 -5.25,-2.35791 -5.25,-5z" fill="none" stroke="#505050" stroke-width="2.5" stroke-linecap="butt"/><path d="M9,137.64532c0,-2.29363 0,-4.80143 0,-6.16666c0,-1.1329 1.61372,-4.86352 5.41667,-4.83334c3.51751,0.02792 5.58333,3.009 5.58333,5c0,1.62947 0,4.14307 0,6.66666c0,2.05 -2.21206,4.24896 -5.75,4.33334c-3.79238,0.09044 -5.25,-2.35791 -5.25,-5z" fill="none" stroke="#505050" stroke-width="2.5" stroke-linecap="butt"/><path d="M10.83333,124.97865c0,-2.29363 0,-4.80143 0,-6.16667c0,-1.1329 1.07582,-4.86351 3.61111,-4.83333c2.34501,0.02792 3.72222,3.009 3.72222,5c0,1.62947 0,4.14307 0,6.66667c0,2.05 -1.4747,4.24896 -3.83333,4.33333c-2.52825,0.09044 -3.5,-2.35791 -3.5,-5z" fill="none" stroke="#505050" stroke-width="2.5" stroke-linecap="butt"/><path d="M9,112.64532c0,-2.29363 0,-4.80143 0,-6.16666c0,-1.1329 1.61372,-4.86352 5.41667,-4.83334c3.51751,0.02792 5.58333,3.009 5.58333,5c0,1.62947 0,4.14307 0,6.66666c0,2.05 -2.21206,4.24896 -5.75,4.33334c-3.79238,0.09044 -5.25,-2.35791 -5.25,-5z" fill="none" stroke="#505050" stroke-width="2.5" stroke-linecap="butt"/><path d="M9,112.64532c0,-2.29363 0,-4.80143 0,-6.16666c0,-1.1329 1.61372,-4.86352 5.41667,-4.83334c3.51751,0.02792 5.58333,3.009 5.58333,5c0,1.62947 0,4.14307 0,6.66666c0,2.05 -2.21206,4.24896 -5.75,4.33334c-3.79238,0.09044 -5.25,-2.35791 -5.25,-5z" fill="none" stroke="#505050" stroke-width="2.5" stroke-linecap="butt"/><path d="M10.83333,99.97865c0,-2.29363 0,-4.80143 0,-6.16667c0,-1.1329 1.07582,-4.86351 3.61111,-4.83333c2.34501,0.02792 3.72222,3.009 3.72222,5c0,1.62947 0,4.14307 0,6.66666c0,2.05 -1.4747,4.24896 -3.83333,4.33334c-2.52825,0.09044 -3.5,-2.35791 -3.5,-5z" fill="none" stroke="#505050" stroke-width="2.5" stroke-linecap="butt"/><path d="M9,87.64532c0,-2.29363 0,-4.80143 0,-6.16666c0,-1.1329 1.61372,-4.86352 5.41667,-4.83334c3.51751,0.02792 5.58333,3.009 5.58333,5c0,1.62947 0,4.14307 0,6.66666c0,2.05 -2.21206,4.24896 -5.75,4.33334c-3.79238,0.09044 -5.25,-2.35791 -5.25,-5z" fill="none" stroke="#505050" stroke-width="2.5" stroke-linecap="butt"/><path d="M9,87.64532c0,-2.29363 0,-4.80143 0,-6.16666c0,-1.1329 1.61372,-4.86352 5.41667,-4.83334c3.51751,0.02792 5.58333,3.009 5.58333,5c0,1.62947 0,4.14307 0,6.66666c0,2.05 -2.21206,4.24896 -5.75,4.33334c-3.79238,0.09044 -5.25,-2.35791 -5.25,-5z" fill="none" stroke="#505050" stroke-width="2.5" stroke-linecap="butt"/><path d="M10.83333,74.97865c0,-2.29363 0,-4.80143 0,-6.16667c0,-1.1329 1.07582,-4.86351 3.61111,-4.83333c2.34501,0.02792 3.72222,3.009 3.72222,5c0,1.62947 0,4.14307 0,6.66666c0,2.05 -1.4747,4.24896 -3.83333,4.33334c-2.52825,0.09044 -3.5,-2.35791 -3.5,-5z" fill="none" stroke="#505050" stroke-width="2.5" stroke-linecap="butt"/><path d="M9,62.64532c0,-2.29363 0,-4.80143 0,-6.16666c0,-1.1329 1.61372,-4.86352 5.41667,-4.83334c3.51751,0.02792 5.58333,3.009 5.58333,5c0,1.62947 0,4.14307 0,6.66666c0,2.05 -2.21206,4.24896 -5.75,4.33334c-3.79238,0.09044 -5.25,-2.35791 -5.25,-5z" fill="none" stroke="#505050" stroke-width="2.5" stroke-linecap="butt"/><path d="M9,62.64532c0,-2.29363 0,-4.80143 0,-6.16666c0,-1.1329 1.61372,-4.86352 5.41667,-4.83334c3.51751,0.02792 5.58333,3.009 5.58333,5c0,1.62947 0,4.14307 0,6.66666c0,2.05 -2.21206,4.24896 -5.75,4.33334c-3.79238,0.09044 -5.25,-2.35791 -5.25,-5z" fill="none" stroke="#505050" stroke-width="2.5" stroke-linecap="butt"/><path d="M10.83333,49.97865c0,-2.29363 0,-4.80143 0,-6.16667c0,-1.1329 1.07582,-4.86351 3.61111,-4.83333c2.34501,0.02791 3.72222,3.009 3.72222,5c0,1.62947 0,4.14307 0,6.66666c0,2.05 -1.4747,4.24896 -3.83333,4.33334c-2.52825,0.09044 -3.5,-2.35791 -3.5,-5z" fill="none" stroke="#505050" stroke-width="2.5" stroke-linecap="butt"/><path d="M9,37.64532c0,-2.29363 0,-4.80143 0,-6.16667c0,-1.1329 1.61372,-4.86351 5.41667,-4.83333c3.51751,0.02791 5.58333,3.009 5.58333,5c0,1.62946 0,4.14307 0,6.66666c0,2.05 -2.21206,4.24896 -5.75,4.33334c-3.79238,0.09044 -5.25,-2.35792 -5.25,-5z" fill="none" stroke="url(#color-3)" stroke-width="2.5" stroke-linecap="butt"/><path d="M9,37.64532c0,-2.29363 0,-4.80143 0,-6.16667c0,-1.1329 1.61372,-4.86351 5.41667,-4.83333c3.51751,0.02791 5.58333,3.009 5.58333,5c0,1.62946 0,4.14307 0,6.66666c0,2.05 -2.21206,4.24896 -5.75,4.33334c-3.79238,0.09044 -5.25,-2.35792 -5.25,-5z" fill="none" stroke="url(#color-4)" stroke-width="2.5" stroke-linecap="butt"/></g></g></svg>