<svg version="1.1" xmlns="http://www.w3.org/2000/svg" xmlns:xlink="http://www.w3.org/1999/xlink" width="63.875" height="63.875" viewBox="0,0,63.875,63.875"><g transform="translate(-208.0625,-148.0625)"><g data-paper-data="{&quot;isPaintingLayer&quot;:true}" fill-rule="nonzero" stroke-linejoin="miter" stroke-miterlimit="10" stroke-dasharray="" stroke-dashoffset="0" style="mix-blend-mode: normal"><path d="M243.7268,184.9201c-0.96846,-0.2423 -1.55712,-1.22382 -1.31482,-2.19228c0.2423,-0.96846 1.22382,-1.55712 2.19228,-1.31482c0.96846,0.2423 1.55712,1.22382 1.31482,2.19228c-0.2423,0.96846 -1.22382,1.55712 -2.19228,1.31482z" fill="#e3d1c3" stroke="#cc8f8f" stroke-width="1" stroke-linecap="butt"/><path d="M238.00087,184.5276c-0.98156,-0.18213 -1.62961,-1.12549 -1.44748,-2.10705c0.18213,-0.98156 1.12549,-1.62961 2.10705,-1.44748c0.98156,0.18213 1.62961,1.12549 1.44748,2.10705c-0.18213,0.98156 -1.12549,1.62961 -2.10705,1.44748z" fill="#e3d1c3" stroke="#cc8f8f" stroke-width="1" stroke-linecap="butt"/><path d="M247.66659,177.67769c0,0 1.19389,-0.15114 1.46794,2.71598c0.27375,2.86409 -1.11827,2.94484 -1.11827,2.94484" data-paper-data="{&quot;index&quot;:null}" fill="none" stroke="#7dffee" stroke-width="1.25" stroke-linecap="round"/><path d="M245.72373,177.79771c0,0 1.19389,-0.15114 1.46794,2.71598c0.27375,2.86409 -1.11827,2.94484 -1.11827,2.94484" data-paper-data="{&quot;index&quot;:null}" fill="none" stroke="#7cebff" stroke-width="1.25" stroke-linecap="round"/><path d="M250.62297,179.16124c0.26397,-0.01631 0.27412,0.11458 0.1149,0.30718c-0.21917,0.26516 -0.47657,0.62984 -0.462,0.86556c0.01262,0.2043 0.29993,0.53659 0.54723,0.78678c0.19001,0.19224 0.22568,0.34409 -0.0042,0.35829c-1.33859,0.08268 -6.03877,0.37302 -7.85978,0.4855c-0.3116,0.01925 -0.40898,1.49888 -1.85111,1.55729c-0.75085,0.03041 -1.19675,-0.14823 -1.35043,-0.46982c-0.3693,-0.77275 -0.23443,-2.49169 -0.24249,-2.62216c-0.00806,-0.13047 0.18107,-0.59366 0.44773,-0.61013c0.26665,-0.01647 8.78506,-0.54266 10.66017,-0.65849z" fill="#8c8c8c" stroke="#6e6e6e" stroke-width="1.25" stroke-linecap="butt"/><path d="M246.0782,183.45824c0,0 -1.39138,0.09119 -1.47219,-2.78482c-0.0809,-2.87906 1.12252,-2.87602 1.12252,-2.87602" fill="none" stroke="#7cebff" stroke-width="1.25" stroke-linecap="round"/><path d="M248.02104,183.33823c0,0 -1.39138,0.09119 -1.47219,-2.78482c-0.0809,-2.87908 1.12252,-2.876 1.12252,-2.876" fill="none" stroke="#7dffee" stroke-width="1.25" stroke-linecap="round"/><path d="M208.0625,211.9375v-63.875h63.875v63.875z" fill="none" stroke="none" stroke-width="0" stroke-linecap="butt"/></g></g></svg>