<svg version="1.1" xmlns="http://www.w3.org/2000/svg" xmlns:xlink="http://www.w3.org/1999/xlink" width="63.875" height="63.875" viewBox="0,0,63.875,63.875"><g transform="translate(-208.0625,-148.0625)"><g data-paper-data="{&quot;isPaintingLayer&quot;:true}" fill-rule="nonzero" stroke-linejoin="miter" stroke-miterlimit="10" stroke-dasharray="" stroke-dashoffset="0" style="mix-blend-mode: normal"><path d="M244.3518,185.2951c-0.96846,-0.2423 -1.55712,-1.22382 -1.31482,-2.19228c0.2423,-0.96846 1.22382,-1.55712 2.19228,-1.31482c0.96846,0.2423 1.55712,1.22382 1.31482,2.19228c-0.2423,0.96846 -1.22382,1.55712 -2.19228,1.31482z" fill="#e3d1c3" stroke="#cc8f8f" stroke-width="1" stroke-linecap="butt"/><path d="M240.42395,184.2954c-0.96846,-0.2423 -1.55712,-1.22382 -1.31482,-2.19228c0.2423,-0.96846 1.22382,-1.55712 2.19228,-1.31482c0.96846,0.2423 1.55712,1.22382 1.31482,2.19228c-0.2423,0.96846 -1.22382,1.55712 -2.19228,1.31482z" fill="#e3d1c3" stroke="#cc8f8f" stroke-width="1" stroke-linecap="butt"/><path d="M250.1186,178.05444c0,0 1.20094,-0.07725 1.2977,2.80132c0.09665,2.87552 -1.2977,2.87029 -1.2977,2.87029" data-paper-data="{&quot;index&quot;:null}" fill="none" stroke="#00ffde" stroke-width="1.25" stroke-linecap="round"/><path d="M248.17204,178.05444c0,0 1.20094,-0.07725 1.2977,2.80132c0.09665,2.87552 -1.2977,2.87029 -1.2977,2.87029" data-paper-data="{&quot;index&quot;:null}" fill="none" stroke="#00d7ff" stroke-width="1.25" stroke-linecap="round"/><path d="M252.97789,179.71743c0.26447,0 0.26653,0.13126 0.09574,0.31368c-0.2351,0.25114 -0.51449,0.59926 -0.51449,0.83543c0,0.20469 0.26628,0.55406 0.49768,0.81902c0.1778,0.20359 0.20404,0.35735 -0.02628,0.35735c-1.34114,0 -6.05028,0 -7.87476,0c-0.31219,0 -0.50061,1.47081 -1.9436,1.4402c-0.7513,-0.01594 -1.18533,-0.22173 -1.3189,-0.55218c-0.32096,-0.79405 -0.08037,-2.5014 -0.08037,-2.63212c0,-0.13072 0.21733,-0.58137 0.48449,-0.58137c0.26716,0 8.8018,-0.00001 10.68049,-0.00001z" fill="#8c8c8c" stroke="#6e6e6e" stroke-width="1.25" stroke-linecap="butt"/><path d="M248.17685,183.72606c0,0 -1.39435,0.00523 -1.2977,-2.87029c0.09676,-2.87857 1.2977,-2.80134 1.2977,-2.80134" fill="none" stroke="#00d7ff" stroke-width="1.25" stroke-linecap="round"/><path d="M250.12339,183.72606c0,0 -1.39435,0.00523 -1.2977,-2.87029c0.09676,-2.87859 1.2977,-2.80132 1.2977,-2.80132" fill="none" stroke="#00ffde" stroke-width="1.25" stroke-linecap="round"/><path d="M208.0625,211.9375v-63.875h63.875v63.875z" fill="none" stroke="none" stroke-width="0" stroke-linecap="butt"/></g></g></svg>