<svg version="1.1" xmlns="http://www.w3.org/2000/svg" xmlns:xlink="http://www.w3.org/1999/xlink" width="63.875" height="63.875" viewBox="0,0,63.875,63.875"><g transform="translate(-208.0625,-148.0625)"><g data-paper-data="{&quot;isPaintingLayer&quot;:true}" fill-rule="nonzero" stroke-linejoin="miter" stroke-miterlimit="10" stroke-dasharray="" stroke-dashoffset="0" style="mix-blend-mode: normal"><path d="M243.7268,184.9201c-0.96846,-0.2423 -1.55712,-1.22382 -1.31482,-2.19228c0.2423,-0.96846 1.22382,-1.55712 2.19228,-1.31482c0.96846,0.2423 1.55712,1.22382 1.31482,2.19228c-0.2423,0.96846 -1.22382,1.55712 -2.19228,1.31482z" fill="#e3d1c3" stroke="#cc8f8f" stroke-width="1" stroke-linecap="butt"/><path d="M237.92077,184.61426c-0.99732,0.0445 -1.84187,-0.72792 -1.88637,-1.72524c-0.0445,-0.99732 0.72792,-1.84187 1.72524,-1.88637c0.99732,-0.0445 1.84187,0.72792 1.88637,1.72524c0.0445,0.99732 -0.72792,1.84187 -1.72524,1.88637z" fill="#e3d1c3" stroke="#cc8f8f" stroke-width="1" stroke-linecap="butt"/><path d="M245.78755,175.75643c0,0 1.12881,-0.41715 2.04398,2.31378c0.91419,2.72804 -0.42353,3.12141 -0.42353,3.12141" data-paper-data="{&quot;index&quot;:null}" fill="none" stroke="#bffff6" stroke-width="1.25" stroke-linecap="round"/><path d="M243.92213,176.31258c0,0 1.12881,-0.41715 2.04398,2.31378c0.91419,2.72804 -0.42353,3.12141 -0.42353,3.12141" data-paper-data="{&quot;index&quot;:null}" fill="none" stroke="#cff8ff" stroke-width="1.25" stroke-linecap="round"/><path d="M249.00279,176.53316c0.25345,-0.07556 0.29292,0.04964 0.18137,0.27325c-0.15355,0.30784 -0.32183,0.72128 -0.25435,0.9476c0.05848,0.19616 0.41348,0.45488 0.71094,0.64269c0.22856,0.1443 0.29763,0.28416 0.07691,0.34996c-1.28524,0.38318 -5.79808,1.72864 -7.5465,2.24991c-0.29918,0.0892 -0.05951,1.55253 -1.4511,1.93548c-0.72454,0.19938 -1.19927,0.12618 -1.42169,-0.15234c-0.53445,-0.66925 -0.7917,-2.37417 -0.82905,-2.49944c-0.03735,-0.12527 0.04217,-0.61923 0.29819,-0.69556c0.25602,-0.07633 8.4349,-2.51479 10.23528,-3.05155z" fill="#8c8c8c" stroke="#6e6e6e" stroke-width="1.25" stroke-linecap="butt"/><path d="M245.54719,181.74641c0,0 -1.33473,0.40339 -2.06368,-2.37988c-0.72972,-2.78622 0.44323,-3.05534 0.44323,-3.05534" fill="none" stroke="#cff8ff" stroke-width="1.25" stroke-linecap="round"/><path d="M247.41259,181.19026c0,0 -1.33473,0.40339 -2.06368,-2.37988c-0.72972,-2.78624 0.44324,-3.05532 0.44324,-3.05532" fill="none" stroke="#bffff6" stroke-width="1.25" stroke-linecap="round"/><path d="M208.0625,211.9375v-63.875h63.875v63.875z" fill="none" stroke="none" stroke-width="0" stroke-linecap="butt"/><path d="M253.2125,176.29999c0.58378,0 -0.02342,1.54867 0.36433,1.96321c0.64396,0.68845 2.09817,0.44649 2.09817,0.93679c0,0.43236 -0.94657,0.26263 -1.93252,0.99192c-0.52033,0.38488 0.00659,1.75808 -0.52998,1.75808c-1.5533,0 -1.7625,-1.81447 -1.7625,-2.85c0,-1.03553 0.2092,-2.8 1.7625,-2.8z" fill="#e32491" stroke="#c4357e" stroke-width="1.25" stroke-linecap="butt"/></g></g></svg>