<svg version="1.1" xmlns="http://www.w3.org/2000/svg" xmlns:xlink="http://www.w3.org/1999/xlink" width="63.875" height="63.875" viewBox="0,0,63.875,63.875"><g transform="translate(-208.0625,-148.0625)"><g data-paper-data="{&quot;isPaintingLayer&quot;:true}" fill-rule="nonzero" stroke-linecap="butt" stroke-linejoin="miter" stroke-miterlimit="10" stroke-dasharray="" stroke-dashoffset="0" style="mix-blend-mode: normal"><path d="M244.10779,168.67518c-0.28199,-0.15579 -0.26467,-0.72724 0.0387,-1.27639c0.30337,-0.54915 0.77791,-0.86803 1.05991,-0.71225c0.28199,0.15579 0.90341,1.27304 0.70549,1.68752c-0.19625,0.41099 -1.52209,0.45693 -1.80409,0.30114z" fill="#00ffb7" stroke="#00e4a4" stroke-width="0.75"/><path d="M240.13349,163.8841c0.28199,0.15579 0.26467,0.72725 -0.0387,1.27639c-0.30337,0.54915 -0.7779,0.86804 -1.0599,0.71225c-0.28199,-0.15579 -0.90342,-1.27304 -0.70549,-1.68752c0.19625,-0.41099 1.52209,-0.45693 1.80409,-0.30114z" fill="#00ffb7" stroke="#00e4a4" stroke-width="0.75"/><path d="M241.00149,168.30546c0.54915,0.30337 0.86804,0.7779 0.71226,1.05989c-0.15579,0.28199 -1.27304,0.90341 -1.68752,0.70549c-0.41099,-0.19625 -0.45692,-1.52209 -0.30113,-1.80409c0.15579,-0.28199 0.72722,-0.26466 1.27638,0.03871z" fill="#00ffb7" stroke="#00e4a4" stroke-width="0.75"/><path d="M244.51618,164.29248c-0.15579,0.28199 -0.72726,0.26466 -1.2764,-0.0387c-0.54915,-0.30337 -0.86804,-0.7779 -0.71225,-1.0599c0.15579,-0.28199 1.27302,-0.9034 1.68751,-0.70548c0.41099,0.19625 0.45694,1.52209 0.30116,1.80409z" fill="#00ffb7" stroke="#00e4a4" stroke-width="0.75"/><path d="M243.41828,167.10194c0.38606,0.85159 3.4438,11.44615 3.41742,12.10367c-0.02144,0.53421 -0.31287,0.9066 -0.50998,0.96342c-0.24855,0.07166 -0.82355,0.06532 -1.22694,-0.6283c-0.62405,-1.07311 -3.42845,-10.94177 -3.3953,-12.13624c0.0158,-0.56945 0.44317,-1.13239 0.64755,-1.1913c0.20438,-0.05893 0.74026,0.16746 1.06725,0.88874z" fill="#8e8e8e" stroke="#595959" stroke-width="0.75"/><path d="M238.68474,167.27019c-0.54708,-1.89759 0.54774,-3.87941 2.44534,-4.42649c1.89759,-0.54708 3.87941,0.54774 4.42649,2.44534c0.54708,1.89759 -0.54774,3.87941 -2.44534,4.42649c-1.89759,0.54708 -3.87941,-0.54774 -4.42649,-2.44534z" fill="#6b6b6b" stroke="#424966" stroke-width="0.75"/><path d="M241.68174,164.7572c-0.60282,0.17379 -1.16387,0.06373 -1.2531,-0.24583c-0.08925,-0.30955 0.26136,-1.53898 0.6944,-1.6921c0.42939,-0.15184 1.39937,0.75318 1.48862,1.06274c0.08925,0.30956 -0.3271,0.7014 -0.92992,0.87518z" fill="#00ffb7" stroke="#00e4a4" stroke-width="0.75"/><path d="M242.55957,167.80208c0.60282,-0.17379 1.16386,-0.06373 1.25309,0.24583c0.08925,0.30955 -0.26136,1.53898 -0.6944,1.6921c-0.42939,0.15184 -1.39938,-0.75318 -1.48862,-1.06274c-0.08925,-0.30956 0.32711,-0.7014 0.92993,-0.87519z" fill="#00ffb7" stroke="#00e4a4" stroke-width="0.75"/><path d="M244.51826,166.77063c-0.30955,0.08925 -0.70139,-0.32709 -0.87518,-0.92991c-0.17379,-0.60282 -0.06375,-1.16386 0.24582,-1.2531c0.30955,-0.08925 1.53898,0.26136 1.69212,0.6944c0.15184,0.42939 -0.75318,1.39937 -1.06276,1.48861z" fill="#00ffb7" stroke="#00e4a4" stroke-width="0.75"/><path d="M240.59821,166.71855c0.17379,0.60282 0.06373,1.16386 -0.24583,1.25309c-0.30955,0.08925 -1.53897,-0.26136 -1.6921,-0.6944c-0.15184,-0.42939 0.75318,-1.39939 1.06273,-1.48863c0.30955,-0.08924 0.7014,0.32711 0.87519,0.92993z" fill="#00ffb7" stroke="#00e4a4" stroke-width="0.75"/><path d="M245.82464,179.78232c-0.97006,0.23581 -1.94761,-0.35943 -2.18341,-1.32949c-0.23581,-0.97006 0.35943,-1.94761 1.32949,-2.18341c0.97006,-0.23581 1.94761,0.35943 2.18341,1.32949c0.23581,0.97006 -0.35943,1.94761 -1.32949,2.18341z" fill="#e3d1c3" stroke="#cc8f8f" stroke-width="1"/><path d="M244.75711,176.08519c-0.97006,0.23581 -1.94761,-0.35943 -2.18341,-1.32949c-0.23581,-0.97006 0.35943,-1.94761 1.32949,-2.18341c0.97006,-0.23581 1.94761,0.35943 2.18341,1.32949c0.23581,0.97006 -0.35943,1.94761 -1.32949,2.18341z" fill="#e3d1c3" stroke="#cc8f8f" stroke-width="1"/><path d="M208.0625,211.9375v-63.875h63.875v63.875z" fill="none" stroke="none" stroke-width="0"/></g></g></svg>