<svg version="1.1" xmlns="http://www.w3.org/2000/svg" xmlns:xlink="http://www.w3.org/1999/xlink" width="63.875" height="63.875" viewBox="0,0,63.875,63.875"><defs><linearGradient x1="246.00086" y1="160.67445" x2="253.9235" y2="182.16998" gradientUnits="userSpaceOnUse" id="color-1"><stop offset="0" stop-color="#b1b1b1" stop-opacity="0"/><stop offset="1" stop-color="#b1b1b1"/></linearGradient></defs><g transform="translate(-208.0625,-148.0625)"><g data-paper-data="{&quot;isPaintingLayer&quot;:true}" fill-rule="nonzero" stroke-linecap="butt" stroke-linejoin="miter" stroke-miterlimit="10" stroke-dasharray="" stroke-dashoffset="0" style="mix-blend-mode: normal"><path d="M248.42167,183.83417c0,0 0.87555,-4.34644 -2.19687,-10.1977c-3.01554,-5.74293 -7.27122,-8.02511 -7.27122,-8.02511l6.27639,-7.41927c0,0 7.88252,1.87886 12.25258,8.17801c6.17833,8.90564 4.21551,14.0448 4.21551,14.0448z" fill="url(#color-1)" stroke="none" stroke-width="0"/><path d="M257.15779,183.37786c0.16778,-0.27503 0.73796,-0.23313 1.27354,0.09358c0.53559,0.32672 0.83375,0.81453 0.66598,1.08958c-0.16778,0.27503 -1.31073,0.8478 -1.71631,0.63223c-0.40216,-0.21375 -0.39102,-1.54033 -0.22323,-1.81538z" fill="#00ffb7" stroke="#00e4a4" stroke-width="0.75"/><path d="M262.11543,179.61338c-0.16778,0.27503 -0.73796,0.23313 -1.27354,-0.09358c-0.53559,-0.32672 -0.83376,-0.81453 -0.66598,-1.08956c0.16778,-0.27503 1.31073,-0.8478 1.71631,-0.63223c0.40216,0.21375 0.39102,1.54033 0.22323,1.81538z" fill="#00ffb7" stroke="#00e4a4" stroke-width="0.75"/><path d="M257.66082,180.29034c-0.32672,0.53559 -0.81453,0.83376 -1.08955,0.666c-0.27503,-0.16778 -0.8478,-1.31073 -0.63223,-1.71631c0.21375,-0.40216 1.54034,-0.39101 1.81538,-0.22323c0.27503,0.16778 0.23312,0.73793 -0.0936,1.27353z" fill="#00ffb7" stroke="#00e4a4" stroke-width="0.75"/><path d="M261.51886,183.97444c-0.27503,-0.16778 -0.23312,-0.73797 0.09358,-1.27355c0.32672,-0.53559 0.81453,-0.83376 1.08956,-0.66598c0.27503,0.16778 0.84779,1.31072 0.63222,1.71631c-0.21375,0.40216 -1.54034,0.39102 -1.81538,0.22326z" fill="#00ffb7" stroke="#00e4a4" stroke-width="0.75"/><path d="M258.75923,182.75668c-0.86741,0.34906 -11.58373,2.94812 -12.2395,2.89348c-0.53279,-0.0444 -0.89229,-0.35159 -0.94058,-0.55096c-0.0609,-0.2514 -0.02982,-0.82559 0.68051,-1.19877c1.09896,-0.5773 11.07915,-2.95449 12.27109,-2.86998c0.56824,0.04029 1.11227,0.49148 1.16234,0.69821c0.05008,0.20673 -0.19916,0.73237 -0.93383,1.02802z" fill="#8e8e8e" stroke="#595959" stroke-width="0.75"/><path d="M258.79481,178.02028c1.91937,-0.46493 3.85225,0.71415 4.31718,2.63353c0.46493,1.91937 -0.71415,3.85225 -2.63353,4.31718c-1.91937,0.46493 -3.85225,-0.71415 -4.31718,-2.63353c-0.46493,-1.91937 0.71415,-3.85225 2.63353,-4.31718z" fill="#6b6b6b" stroke="#424966" stroke-width="0.75"/><path d="M261.17652,181.12262c-0.14769,-0.60974 -0.01359,-1.16554 0.29952,-1.24136c0.3131,-0.07585 1.52631,0.32733 1.66066,0.76656c0.13323,0.43552 -0.81269,1.36567 -1.12581,1.44151c-0.31311,0.07585 -0.68668,-0.35698 -0.83435,-0.96672z" fill="#00ffb7" stroke="#00e4a4" stroke-width="0.75"/><path d="M257.79718,183.10999c-0.3131,0.07585 -1.52631,-0.32733 -1.66066,-0.76656c-0.13323,-0.43552 0.8127,-1.36568 1.12581,-1.44151c0.31311,-0.07585 0.68667,0.35698 0.83437,0.96673c0.1477,0.60975 0.01359,1.16551 -0.29951,1.24134z" fill="#00ffb7" stroke="#00e4a4" stroke-width="0.75"/><path d="M260.00961,183.03553c0.60974,-0.14769 1.16552,-0.01361 1.24136,0.29951c0.07585,0.3131 -0.32733,1.52631 -0.76657,1.66067c-0.43552,0.13323 -1.36567,-0.81269 -1.4415,-1.12583c-0.07583,-0.31314 0.35697,-0.68666 0.96671,-0.83435z" fill="#00ffb7" stroke="#00e4a4" stroke-width="0.75"/><path d="M259.2636,179.95571c-0.60974,0.14769 -1.16552,0.01359 -1.24136,-0.29952c-0.07585,-0.3131 0.32733,-1.5263 0.76656,-1.66066c0.43552,-0.13323 1.36568,0.81269 1.44153,1.12579c0.07584,0.3131 -0.35698,0.68667 -0.96673,0.83437z" fill="#00ffb7" stroke="#00e4a4" stroke-width="0.75"/><path d="M245.98706,184.61521c-0.19386,-0.97931 0.4429,-1.93034 1.42221,-2.12418c0.97931,-0.19386 1.93034,0.4429 2.12418,1.42221c0.19386,0.97931 -0.4429,1.93034 -1.42221,2.12418c-0.97931,0.19386 -1.93034,-0.4429 -2.12418,-1.42221z" fill="#e3d1c3" stroke="#cc8f8f" stroke-width="1"/><path d="M249.7267,183.70775c-0.19386,-0.97931 0.4429,-1.93034 1.42221,-2.12418c0.97931,-0.19386 1.93034,0.4429 2.12418,1.42221c0.19386,0.97931 -0.4429,1.93034 -1.42221,2.12418c-0.97931,0.19386 -1.93034,-0.4429 -2.12418,-1.42221z" fill="#e3d1c3" stroke="#cc8f8f" stroke-width="1"/><path d="M208.0625,211.9375v-63.875h63.875v63.875z" fill="none" stroke="none" stroke-width="0"/></g></g></svg>