<svg version="1.1" xmlns="http://www.w3.org/2000/svg" xmlns:xlink="http://www.w3.org/1999/xlink" width="63.875" height="63.875" viewBox="0,0,63.875,63.875"><g transform="translate(-208.0625,-148.0625)"><g data-paper-data="{&quot;isPaintingLayer&quot;:true}" fill-rule="nonzero" stroke-linecap="butt" stroke-linejoin="miter" stroke-miterlimit="10" stroke-dasharray="" stroke-dashoffset="0" style="mix-blend-mode: normal"><path d="M248.20806,176.12527c-0.17721,-0.26904 0.10384,-0.76691 0.62776,-1.11202c0.52393,-0.34511 1.09232,-0.40677 1.26954,-0.13773c0.17721,0.26904 0.20786,1.54712 -0.16009,1.82203c-0.36485,0.2726 -1.56,-0.30322 -1.73722,-0.57227z" fill="#00ffb7" stroke="#00e4a4" stroke-width="0.75"/><path d="M246.91732,170.03565c0.17721,0.26904 -0.10384,0.76692 -0.62776,1.11202c-0.52393,0.34511 -1.09231,0.40678 -1.26953,0.13773c-0.17721,-0.26904 -0.20787,-1.54712 0.16009,-1.82203c0.36485,-0.2726 1.56,0.30322 1.73722,0.57227z" fill="#00ffb7" stroke="#00e4a4" stroke-width="0.75"/><path d="M244.51789,173.72581c0.26904,-0.17721 0.7669,0.10383 1.11202,0.62776c0.34511,0.52393 0.40678,1.09231 0.13775,1.26953c-0.26904,0.17721 -1.54712,0.20786 -1.82203,-0.16009c-0.2726,-0.36485 0.30323,-1.56 0.57228,-1.73721z" fill="#00ffb7" stroke="#00e4a4" stroke-width="0.75"/><path d="M250.60751,172.43508c-0.26904,0.17721 -0.76692,-0.10386 -1.11202,-0.62777c-0.34511,-0.52393 -0.40678,-1.09231 -0.13773,-1.26953c0.26904,-0.17721 1.5471,-0.20786 1.82202,0.16009c0.2726,0.36485 -0.30321,1.56 -0.57225,1.73723z" fill="#00ffb7" stroke="#00e4a4" stroke-width="0.75"/><path d="M248.32916,174.41184c-0.05419,0.93344 -2.27343,11.7348 -2.60252,12.30465c-0.26738,0.46298 -0.69854,0.65715 -0.89947,0.6158c-0.25337,-0.05213 -0.75948,-0.32511 -0.79408,-1.12675c-0.0535,-1.24022 2.05249,-11.28113 2.63724,-12.3232c0.27877,-0.4968 0.91889,-0.79646 1.12723,-0.75358c0.20834,0.04286 0.5775,0.49246 0.53161,1.28307z" fill="#8e8e8e" stroke="#595959" stroke-width="0.75"/><path d="M244.06023,172.35977c0.39801,-1.93436 2.28879,-3.17982 4.22316,-2.78181c1.93436,0.39801 3.17982,2.28879 2.78181,4.22316c-0.39801,1.93436 -2.28879,3.17982 -4.22316,2.78181c-1.93436,-0.39801 -3.17982,-2.28879 -2.78181,-4.22316z" fill="#6b6b6b" stroke="#424966" stroke-width="0.75"/><path d="M247.88204,171.52853c-0.6145,-0.12644 -1.06003,-0.48476 -0.99509,-0.80031c0.06492,-0.31555 0.94699,-1.24096 1.40157,-1.17516c0.45075,0.06523 0.88867,1.31749 0.82374,1.63305c-0.06493,0.31556 -0.61573,0.46886 -1.23022,0.34242z" fill="#00ffb7" stroke="#00e4a4" stroke-width="0.75"/><path d="M247.24337,174.6324c0.6145,0.12644 1.06002,0.48476 0.99508,0.80031c-0.06492,0.31555 -0.94699,1.24096 -1.40156,1.17516c-0.45075,-0.06523 -0.88868,-1.31749 -0.82375,-1.63305c0.06493,-0.31556 0.61574,-0.46886 1.23023,-0.34242z" fill="#00ffb7" stroke="#00e4a4" stroke-width="0.75"/><path d="M249.45705,174.63c-0.31555,-0.06492 -0.46886,-0.61571 -0.34242,-1.23021c0.12644,-0.6145 0.48474,-1.06003 0.8003,-0.99509c0.31555,0.06492 1.24096,0.94699 1.17518,1.40157c-0.06523,0.45075 -1.31749,0.88867 -1.63306,0.82373z" fill="#00ffb7" stroke="#00e4a4" stroke-width="0.75"/><path d="M246.01077,172.76113c-0.12644,0.6145 -0.48476,1.06002 -0.80031,0.99508c-0.31555,-0.06492 -1.24095,-0.94699 -1.17516,-1.40156c0.06523,-0.45075 1.3175,-0.88869 1.63305,-0.82376c0.31555,0.06493 0.46886,0.61574 0.34242,1.23024z" fill="#00ffb7" stroke="#00e4a4" stroke-width="0.75"/><path d="M244.56337,186.75694c-0.96846,-0.2423 -1.55712,-1.22382 -1.31482,-2.19228c0.2423,-0.96846 1.22382,-1.55712 2.19228,-1.31482c0.96846,0.2423 1.55712,1.22382 1.31482,2.19228c-0.2423,0.96846 -1.22382,1.55712 -2.19228,1.31482z" fill="#e3d1c3" stroke="#cc8f8f" stroke-width="1"/><path d="M245.33738,182.98741c-0.96846,-0.2423 -1.55712,-1.22382 -1.31482,-2.19228c0.2423,-0.96846 1.22382,-1.55712 2.19228,-1.31482c0.96846,0.2423 1.55712,1.22382 1.31482,2.19228c-0.2423,0.96846 -1.22382,1.55712 -2.19228,1.31482z" fill="#e3d1c3" stroke="#cc8f8f" stroke-width="1"/><path d="M208.0625,211.9375v-63.875h63.875v63.875z" fill="none" stroke="none" stroke-width="0"/></g></g></svg>