<svg version="1.1" xmlns="http://www.w3.org/2000/svg" xmlns:xlink="http://www.w3.org/1999/xlink" width="63.875" height="63.875" viewBox="0,0,63.875,63.875"><g transform="translate(-208.0625,-148.0625)"><g data-paper-data="{&quot;isPaintingLayer&quot;:true}" fill-rule="nonzero" stroke-linecap="butt" stroke-linejoin="miter" stroke-miterlimit="10" stroke-dasharray="" stroke-dashoffset="0" style="mix-blend-mode: normal"><path d="M236.67802,165.73334c-0.30404,0.10654 -0.71871,-0.28704 -0.9262,-0.8791c-0.20749,-0.59207 -0.12922,-1.15841 0.17482,-1.26497c0.30404,-0.10654 1.55127,0.17421 1.72856,0.59793c0.1758,0.42014 -0.67311,1.4396 -0.97716,1.54615z" fill="#00ffb7" stroke="#00e4a4" stroke-width="0.75"/><path d="M230.45726,165.50604c0.30404,-0.10654 0.71871,0.28704 0.9262,0.8791c0.20749,0.59207 0.12923,1.15841 -0.17481,1.26496c-0.30404,0.10654 -1.55127,-0.17421 -1.72856,-0.59793c-0.1758,-0.42014 0.67311,-1.4396 0.97716,-1.54615z" fill="#00ffb7" stroke="#00e4a4" stroke-width="0.75"/><path d="M234.33307,167.80385c0.59207,-0.20749 1.15841,-0.12923 1.26496,0.17479c0.10654,0.30404 -0.17421,1.55127 -0.59793,1.72856c-0.42014,0.1758 -1.4396,-0.67312 -1.54615,-0.97716c-0.10654,-0.30404 0.28703,-0.71868 0.87911,-0.92618z" fill="#00ffb7" stroke="#00e4a4" stroke-width="0.75"/><path d="M233.68128,162.5093c0.10654,0.30404 -0.28706,0.71871 -0.87911,0.92621c-0.59207,0.20749 -1.15841,0.12923 -1.26496,-0.17481c-0.10654,-0.30404 0.17421,-1.55125 0.59793,-1.72855c0.42014,-0.1758 1.43961,0.67311 1.54617,0.97714z" fill="#00ffb7" stroke="#00e4a4" stroke-width="0.75"/><path d="M235.04534,165.19962c0.89231,0.27933 10.83097,5.05611 11.3038,5.51378c0.38415,0.37184 0.46776,0.83726 0.37884,1.02212c-0.11212,0.23311 -0.49987,0.65774 -1.28591,0.49657c-1.21606,-0.24939 -10.44456,-4.73157 -11.31336,-5.55197c-0.41419,-0.39111 -0.54937,-1.08485 -0.45716,-1.27653c0.09219,-0.19169 0.61801,-0.44056 1.37378,-0.20398z" fill="#8e8e8e" stroke="#595959" stroke-width="0.75"/><path d="M232.01767,168.84214c-1.77972,-0.85601 -2.52854,-2.99271 -1.67252,-4.77244c0.85601,-1.77972 2.99271,-2.52854 4.77244,-1.67252c1.77972,0.85601 2.52854,2.99271 1.67252,4.77244c-0.85601,1.77972 -2.99271,2.52854 -4.77244,1.67252z" fill="#6b6b6b" stroke="#424966" stroke-width="0.75"/><path d="M232.13978,164.9329c-0.27194,0.56537 -0.72776,0.91051 -1.01808,0.77085c-0.29033,-0.13963 -0.97373,-1.22009 -0.79947,-1.64507c0.17278,-0.4214 1.49391,-0.54199 1.78424,-0.40234c0.29033,0.13964 0.30524,0.71119 0.03329,1.27655z" fill="#00ffb7" stroke="#00e4a4" stroke-width="0.75"/><path d="M234.99551,166.30646c0.27194,-0.56537 0.72775,-0.9105 1.01807,-0.77085c0.29033,0.13963 0.97373,1.22009 0.79947,1.64507c-0.17278,0.4214 -1.49392,0.54199 -1.78424,0.40234c-0.29033,-0.13964 -0.30523,-0.71119 -0.03329,-1.27657z" fill="#00ffb7" stroke="#00e4a4" stroke-width="0.75"/><path d="M235.53096,164.15852c-0.13963,0.29033 -0.71117,0.30524 -1.27654,0.0333c-0.56537,-0.27194 -0.91051,-0.72773 -0.77086,-1.01807c0.13963,-0.29033 1.22009,-0.97373 1.64508,-0.79948c0.4214,0.17278 0.54199,1.49391 0.40232,1.78425z" fill="#00ffb7" stroke="#00e4a4" stroke-width="0.75"/><path d="M232.88086,167.04755c0.56537,0.27194 0.9105,0.72775 0.77085,1.01807c-0.13963,0.29033 -1.22008,0.97372 -1.64507,0.79947c-0.4214,-0.17278 -0.542,-1.49392 -0.40236,-1.78424c0.13964,-0.29032 0.71119,-0.30523 1.27657,-0.03329z" fill="#00ffb7" stroke="#00e4a4" stroke-width="0.75"/><path d="M246.10577,171.85165c-0.47031,0.88059 -1.56544,1.21317 -2.44602,0.74285c-0.88059,-0.47031 -1.21317,-1.56544 -0.74285,-2.44602c0.47031,-0.88059 1.56544,-1.21317 2.44602,-0.74285c0.88059,0.47031 1.21317,1.56544 0.74285,2.44602z" fill="#e3d1c3" stroke="#cc8f8f" stroke-width="1"/><path d="M242.6372,170.18508c-0.47031,0.88059 -1.56544,1.21317 -2.44602,0.74285c-0.88059,-0.47031 -1.21317,-1.56544 -0.74285,-2.44602c0.47031,-0.88059 1.56544,-1.21317 2.44602,-0.74285c0.88059,0.47031 1.21317,1.56544 0.74285,2.44602z" fill="#e3d1c3" stroke="#cc8f8f" stroke-width="1"/><path d="M208.0625,211.9375v-63.875h63.875v63.875z" fill="none" stroke="none" stroke-width="0"/></g></g></svg>