<svg version="1.1" xmlns="http://www.w3.org/2000/svg" xmlns:xlink="http://www.w3.org/1999/xlink" width="15.84616" height="15.84615" viewBox="0,0,15.84616,15.84615"><g transform="translate(-232.07692,-172.07692)"><g data-paper-data="{&quot;isPaintingLayer&quot;:true}" fill-rule="nonzero" stroke-linecap="butt" stroke-linejoin="miter" stroke-miterlimit="10" stroke-dasharray="" stroke-dashoffset="0" style="mix-blend-mode: normal"><path d="" fill="#00cece" stroke="#006c6f" stroke-width="1"/><path d="" fill="#00cece" stroke="#006c6f" stroke-width="1"/><path d="" fill="#00cece" stroke="#008e93" stroke-width="1"/><path d="M242.36609,182.36609c-0.63085,0.63085 -2.20158,0.08291 -3.50834,-1.22384c-1.30675,-1.30675 -1.85469,-2.87749 -1.22384,-3.50834c0.63085,-0.63085 2.20158,-0.08291 3.50834,1.22384c1.30675,1.30675 1.85469,2.87749 1.22384,3.50834z" fill="none" stroke="#0089b8" stroke-width="1"/><path d="M237.63391,182.36609c-0.63085,-0.63085 -0.08292,-2.20158 1.22384,-3.50834c1.30675,-1.30675 2.87749,-1.85469 3.50834,-1.22384c0.63085,0.63085 0.08291,2.20158 -1.22384,3.50834c-1.30675,1.30675 -2.87749,1.85469 -3.50834,1.22384z" fill="none" stroke="#0089b8" stroke-width="1"/><path d="M232.07692,180c0,-4.3758 3.54728,-7.92307 7.92308,-7.92307c4.3758,0 7.92308,3.54728 7.92308,7.92307c0,4.3758 -3.54728,7.92308 -7.92308,7.92308c-4.3758,0 -7.92308,-3.54728 -7.92308,-7.92308z" fill="none" stroke="#003ab8" stroke-width="0"/></g></g></svg>