<svg version="1.1" xmlns="http://www.w3.org/2000/svg" xmlns:xlink="http://www.w3.org/1999/xlink" width="15.84616" height="15.84615" viewBox="0,0,15.84616,15.84615"><g transform="translate(-232.07692,-172.07693)"><g data-paper-data="{&quot;isPaintingLayer&quot;:true}" fill-rule="nonzero" stroke-linejoin="miter" stroke-miterlimit="10" stroke-dasharray="" stroke-dashoffset="0" style="mix-blend-mode: normal"><path d="M243.23458,176.93588c0.02153,0.02153 0.15195,0.55743 -0.22116,1.05258c-0.44052,0.58461 -6.54775,6.69525 -7.0044,6.93051c-0.37101,0.19114 -0.72892,0.14025 -0.83835,0.03082c-0.13799,-0.13799 -0.34017,-0.5234 -0.0133,-1.05879c0.50571,-0.82831 6.21024,-6.49107 7.03447,-6.92831c0.39296,-0.20846 0.92927,-0.14028 1.04274,-0.02681z" fill="#666664" stroke="#383331" stroke-width="0.5" stroke-linecap="butt"/><path d="M244.19887,174.32616c0.09079,-0.0132 -0.89732,1.6463 -0.51509,2.0155c0.3904,0.3771 2.15017,-0.53474 2.13503,-0.43381c-0.06871,0.4581 -2.11311,1.73739 -2.47366,1.74986c-0.2256,0.0078 -0.39264,-0.1407 -0.55278,-0.30085c-0.17958,-0.17958 -0.37137,-0.37812 -0.35058,-0.63568c0.02738,-0.33921 1.30504,-2.32929 1.75707,-2.39503z" fill="#cfcfcf" stroke="#616b95" stroke-width="0.5" stroke-linecap="butt"/><path d="M244.66871,174.68265l0.14844,0.34844l0.43223,0.04349l0.18496,0.3737" fill="none" stroke="#00e3ff" stroke-width="0.5" stroke-linecap="round"/><path d="M232.07692,180.00001c0,-4.3758 3.54728,-7.92307 7.92308,-7.92307c4.3758,0 7.92308,3.54728 7.92308,7.92307c0,4.3758 -3.54728,7.92308 -7.92308,7.92308c-4.3758,0 -7.92308,-3.54728 -7.92308,-7.92308z" fill="none" stroke="#003ab8" stroke-width="0" stroke-linecap="butt"/></g></g></svg>