<svg version="1.1" xmlns="http://www.w3.org/2000/svg" xmlns:xlink="http://www.w3.org/1999/xlink" width="15.84616" height="15.84615" viewBox="0,0,15.84616,15.84615"><g transform="translate(-232.07692,-172.07692)"><g data-paper-data="{&quot;isPaintingLayer&quot;:true}" fill-rule="nonzero" stroke-linejoin="miter" stroke-miterlimit="10" stroke-dasharray="" stroke-dashoffset="0" style="mix-blend-mode: normal"><path d="M242.19377,177.65873c0,0 0.99154,-0.06378 1.07143,2.31288c0.0798,2.37414 -1.07143,2.36982 -1.07143,2.36982" data-paper-data="{&quot;index&quot;:null}" fill="none" stroke="#00ffde" stroke-width="1" stroke-linecap="round"/><path d="M240.58662,177.65873c0,0 0.99154,-0.06378 1.07143,2.31288c0.0798,2.37414 -1.07143,2.36982 -1.07143,2.36982" data-paper-data="{&quot;index&quot;:null}" fill="none" stroke="#00d7ff" stroke-width="1" stroke-linecap="round"/><path d="M235.73629,179.03176c0.92527,0 7.2671,0 8.81822,0c0.21836,0 0.22006,0.10837 0.07905,0.25899c-0.19411,0.20735 -0.42478,0.49477 -0.42478,0.68976c0,0.169 0.21985,0.45745 0.4109,0.67621c0.1468,0.16809 0.16846,0.29504 -0.0217,0.29504c-1.1073,0 -4.99534,0 -6.5017,0c-0.25776,0 -0.41332,1.21436 -1.60471,1.18908c-0.6203,-0.01316 -0.97865,-0.18307 -1.08893,-0.4559c-0.265,-0.6556 -0.06636,-2.06525 -0.06636,-2.17318c0,-0.10793 0.17944,-0.48 0.40001,-0.48z" fill="#8c8c8c" stroke="#6e6e6e" stroke-width="1" stroke-linecap="butt"/><path d="M240.59059,182.34144c0,0 -1.15123,0.00432 -1.07143,-2.36982c0.07989,-2.37666 1.07143,-2.31289 1.07143,-2.31289" fill="none" stroke="#00d7ff" stroke-width="1" stroke-linecap="round"/><path d="M242.19773,182.34144c0,0 -1.15123,0.00432 -1.07143,-2.36982c0.07989,-2.37667 1.07143,-2.31288 1.07143,-2.31288" fill="none" stroke="#00ffde" stroke-width="1" stroke-linecap="round"/><path d="M232.07692,180c0,-4.3758 3.54728,-7.92307 7.92308,-7.92307c4.3758,0 7.92308,3.54728 7.92308,7.92307c0,4.3758 -3.54728,7.92308 -7.92308,7.92308c-4.3758,0 -7.92308,-3.54728 -7.92308,-7.92308z" fill="none" stroke="#003ab8" stroke-width="0" stroke-linecap="butt"/></g></g></svg>