<svg version="1.1" xmlns="http://www.w3.org/2000/svg" xmlns:xlink="http://www.w3.org/1999/xlink" width="15.84615" height="15.84615" viewBox="0,0,15.84615,15.84615"><g transform="translate(-232.07692,-172.07691)"><g data-paper-data="{&quot;isPaintingLayer&quot;:true}" fill-rule="nonzero" stroke-linejoin="miter" stroke-miterlimit="10" stroke-dasharray="" stroke-dashoffset="0" style="mix-blend-mode: normal"><path d="M244.44635,183.46497c0,0 -0.47055,1.39171 -5.11137,-3.29309c-4.22968,-4.26979 -3.3133,-5.13158 -3.3133,-5.13158" data-paper-data="{&quot;index&quot;:null}" fill="none" stroke="#00e3ff" stroke-width="1" stroke-linecap="round"/><path d="M244.36515,175.14987c0,0 1.39171,0.47056 -3.2931,5.11137c-4.26979,4.22969 -5.10301,3.37044 -5.10301,3.37044" data-paper-data="{&quot;index&quot;:null}" fill="none" stroke="#00e3ff" stroke-width="1" stroke-linecap="round"/><path d="M239.98528,177.54905c0.42112,0.00435 0.1256,-1.49717 2.6557,-1.37483c0.6708,0.03244 2.26276,1.44934 1.51889,3.09565c-0.92541,2.04811 -4.25152,4.56299 -4.25152,4.56299c0,0 -3.25337,-2.50588 -4.10576,-4.65c-0.63785,-1.60446 0.81342,-3.00635 1.92028,-3.00407c2.14575,0.00442 1.7342,1.36481 2.26241,1.37026z" fill="#e66851" stroke="#d54c34" stroke-width="1" stroke-linecap="butt"/><path d="M236.02168,183.65573c0,0 -0.91639,-0.86178 3.3133,-5.13157c4.64081,-4.68481 5.11137,-3.2931 5.11137,-3.2931" fill="none" stroke="#00e3ff" stroke-width="1" stroke-linecap="round"/><path d="M235.99763,175.06436c0,0 0.80464,-0.85925 5.07443,3.37044c4.6848,4.64081 3.29309,5.11137 3.29309,5.11137" fill="none" stroke="#00e3ff" stroke-width="1" stroke-linecap="round"/><path d="M232.07692,179.99999c0,-4.37579 3.54728,-7.92308 7.92308,-7.92308c4.37579,0 7.92308,3.54728 7.92308,7.92308c0,4.37579 -3.54728,7.92308 -7.92308,7.92308c-4.37579,0 -7.92308,-3.54728 -7.92308,-7.92308z" fill="none" stroke="#003ab8" stroke-width="0" stroke-linecap="butt"/></g></g></svg>