<svg version="1.1" xmlns="http://www.w3.org/2000/svg" xmlns:xlink="http://www.w3.org/1999/xlink" width="15.84616" height="15.84615" viewBox="0,0,15.84616,15.84615"><g transform="translate(-232.07692,-172.07692)"><g data-paper-data="{&quot;isPaintingLayer&quot;:true}" fill-rule="nonzero" stroke-linecap="butt" stroke-linejoin="miter" stroke-miterlimit="10" stroke-dasharray="" stroke-dashoffset="0" style="mix-blend-mode: normal"><path d="M242.0841,179.19262c0,-0.23133 0.36519,-0.41886 0.81567,-0.41886c0.45048,0 0.81568,0.18754 0.81568,0.41886c0,0.23133 -0.48645,1.00983 -0.81568,1.02935c-0.32646,0.01935 -0.81568,-0.79801 -0.81568,-1.02935z" fill="#00ffb7" stroke="#00e4a4" stroke-width="0.5"/><path d="M243.71545,175.03117c0,0.23133 -0.36519,0.41886 -0.81568,0.41886c-0.45048,0 -0.81567,-0.18753 -0.81567,-0.41886c0,-0.23133 0.48644,-1.00983 0.81568,-1.02935c0.32646,-0.01935 0.81568,0.79801 0.81568,1.02935z" fill="#00ffb7" stroke="#00e4a4" stroke-width="0.5"/><path d="M240.81905,176.29622c0.23133,0 0.41885,0.36518 0.41886,0.81567c0,0.45048 -0.18752,0.81568 -0.41885,0.81568c-0.23133,0 -1.00983,-0.48645 -1.02935,-0.81568c-0.01935,-0.32646 0.79802,-0.81567 1.02935,-0.81567z" fill="#00ffb7" stroke="#00e4a4" stroke-width="0.5"/><path d="M244.9805,177.92757c-0.23133,0 -0.41886,-0.3652 -0.41886,-0.81568c0,-0.45048 0.18753,-0.81567 0.41886,-0.81567c0.23133,0 1.00982,0.48645 1.02934,0.81568c0.01935,0.32646 -0.798,0.81568 -1.02934,0.81569z" fill="#00ffb7" stroke="#00e4a4" stroke-width="0.5"/><path d="M242.8335,178.21301c-0.40119,0.53833 -5.99837,6.13876 -6.4208,6.35047c-0.3432,0.17201 -0.67844,0.11814 -0.7826,0.01399c-0.13134,-0.13134 -0.32701,-0.49494 -0.03111,-0.9893c0.45779,-0.76483 5.68669,-5.95398 6.44894,-6.34788c0.3634,-0.1878 0.8656,-0.11464 0.9736,-0.00665c0.108,0.108 0.15178,0.5234 -0.18802,0.97937z" fill="#8e8e8e" stroke="#595959" stroke-width="0.5"/><path d="M241.08418,175.29631c1.00272,-1.00272 2.62846,-1.00272 3.63118,0c1.00272,1.00272 1.00272,2.62846 0,3.63118c-1.00272,1.00272 -2.62846,1.00272 -3.63118,0c-1.00272,-1.00272 -1.00272,-2.62846 0,-3.63118z" fill="#6b6b6b" stroke="#424966" stroke-width="0.5"/><path d="M244.57721,176.588c-0.16357,0.16357 -0.55441,0.03796 -0.87295,-0.28058c-0.31854,-0.31854 -0.44417,-0.70938 -0.28059,-0.87296c0.16357,-0.16357 1.05803,-0.37009 1.30462,-0.15108c0.24453,0.21716 0.01249,1.14105 -0.15108,1.30462z" fill="#00ffb7" stroke="#00e4a4" stroke-width="0.5"/><path d="M241.22234,177.63579c0.16357,-0.16357 0.55442,-0.03795 0.87296,0.28059c0.31854,0.31854 0.44416,0.70937 0.28058,0.87295c-0.16357,0.16357 -1.05803,0.37009 -1.30462,0.15108c-0.24453,-0.21716 -0.0125,-1.14105 0.15108,-1.30462z" fill="#00ffb7" stroke="#00e4a4" stroke-width="0.5"/><path d="M243.42367,178.78933c-0.16357,-0.16357 -0.03795,-0.55441 0.28059,-0.87295c0.31854,-0.31854 0.70937,-0.44417 0.87295,-0.2806c0.16357,0.16357 0.37009,1.05803 0.15108,1.30463c-0.21716,0.24453 -1.14105,0.01249 -1.30462,-0.15109z" fill="#00ffb7" stroke="#00e4a4" stroke-width="0.5"/><path d="M242.37588,175.43446c0.16357,0.16357 0.03795,0.55442 -0.2806,0.87296c-0.31854,0.31854 -0.70937,0.44416 -0.87295,0.28058c-0.16357,-0.16357 -0.37008,-1.05802 -0.15108,-1.30462c0.21716,-0.24453 1.14106,-0.0125 1.30463,0.15107z" fill="#00ffb7" stroke="#00e4a4" stroke-width="0.5"/><path d="M232.07692,179.99999c0,-4.3758 3.54728,-7.92307 7.92308,-7.92307c4.3758,0 7.92308,3.54728 7.92308,7.92307c0,4.3758 -3.54728,7.92308 -7.92308,7.92308c-4.3758,0 -7.92308,-3.54728 -7.92308,-7.92308z" fill="none" stroke="#003ab8" stroke-width="0"/></g></g></svg>