<svg version="1.1" xmlns="http://www.w3.org/2000/svg" xmlns:xlink="http://www.w3.org/1999/xlink" width="63.875" height="63.875" viewBox="0,0,63.875,63.875"><defs><linearGradient x1="257.84731" y1="170.79338" x2="259.80776" y2="178.82873" gradientUnits="userSpaceOnUse" id="color-1"><stop offset="0" stop-color="#b1b1b1" stop-opacity="0"/><stop offset="1" stop-color="#b1b1b1"/></linearGradient></defs><g transform="translate(-208.0625,-148.0625)"><g data-paper-data="{&quot;isPaintingLayer&quot;:true}" fill-rule="nonzero" stroke-linejoin="miter" stroke-miterlimit="10" stroke-dasharray="" stroke-dashoffset="0" style="mix-blend-mode: normal"><path d="M254.37542,180.1541c0,0 -0.01348,-2.01144 -0.67594,-3.50168c-0.83749,-1.88395 -4.4475,-4.71719 -4.4475,-4.71719l8.89122,-5.83433c0,0 4.54552,3.98496 6.43318,6.99515c1.80405,2.87686 2.13699,5.10423 2.13699,5.10423c0,0 -0.86254,-0.43631 -1.78235,-0.29065c-2.10151,0.33279 -10.5556,2.24448 -10.5556,2.24448z" fill="url(#color-1)" stroke="none" stroke-width="0" stroke-linecap="butt"/><path d="M248.95148,181.64658c0.87126,-0.20262 3.37326,-0.78447 3.37326,-0.78447l0.44599,1.91774c0,0 -2.502,0.58185 -3.37326,0.78447c-0.55103,0.12815 -1.4782,-0.03677 -1.58122,-0.68343c-0.11241,-0.70566 0.58419,-1.10616 1.13523,-1.23431z" fill="#3a3a3a" stroke="#272727" stroke-width="0.75" stroke-linecap="butt"/><path d="M253.63383,181.56841l-0.84562,0.19665" fill="none" stroke="#272727" stroke-width="0.75" stroke-linecap="round"/><path d="M254.22257,180.23814l10.8365,-2.52011c0,0 1.91167,0.41651 2.0013,0.80198c0.09629,0.41406 -1.44206,1.60276 -1.44206,1.60276l-10.8365,2.52011" fill="none" stroke="#ff7300" stroke-width="0.75" stroke-linecap="round"/><path d="M253.74629,179.68641l0.81889,3.52123" fill="none" stroke="#272727" stroke-width="0.75" stroke-linecap="round"/><path d="M232.28452,183.86529c0,-0.99831 0.80929,-1.8076 1.8076,-1.8076c0.99831,0 1.8076,0.80929 1.8076,1.8076c0,0.99831 -0.80929,1.8076 -1.8076,1.8076c-0.99831,0 -1.8076,-0.80929 -1.8076,-1.8076z" fill="#e3d1c3" stroke="#cc8f8f" stroke-width="1" stroke-linecap="butt"/><path d="M248.51753,180.72971c0.92035,-0.38676 1.97997,0.0458 2.36673,0.96614c0.38676,0.92035 -0.0458,1.97997 -0.96614,2.36673c-0.92035,0.38676 -1.97997,-0.0458 -2.36673,-0.96614c-0.38676,-0.92035 0.0458,-1.97997 0.96614,-2.36673z" fill="#e3d1c3" stroke="#cc8f8f" stroke-width="1" stroke-linecap="butt"/><path d="M208.0625,211.9375v-63.875h63.875v63.875z" fill="none" stroke="none" stroke-width="0" stroke-linecap="butt"/></g></g></svg>