<svg version="1.1" xmlns="http://www.w3.org/2000/svg" xmlns:xlink="http://www.w3.org/1999/xlink" width="63.875" height="63.875" viewBox="0,0,63.875,63.875"><g transform="translate(-208.0625,-148.0625)"><g data-paper-data="{&quot;isPaintingLayer&quot;:true}" fill-rule="nonzero" stroke-linejoin="miter" stroke-miterlimit="10" stroke-dasharray="" stroke-dashoffset="0" style="mix-blend-mode: normal"><path d="M245.22841,182.79346c0.15075,-0.88172 0.58365,-3.41374 0.58365,-3.41374l1.94076,0.33181c0,0 -0.4329,2.53203 -0.58365,3.41374c-0.09534,0.55765 -0.60657,1.34852 -1.24265,1.19296c-0.6941,-0.16975 -0.79345,-0.96712 -0.69811,-1.52477z" fill="#3a3a3a" stroke="#272727" stroke-width="0.75" stroke-linecap="butt"/><path d="M246.97035,178.44649l-0.14631,0.85577" fill="none" stroke="#272727" stroke-width="0.75" stroke-linecap="round"/><path d="M245.97207,177.38835l1.87494,-10.96655c0,0 1.12459,-1.60101 1.51469,-1.53431c0.41903,0.07164 0.91892,1.95038 0.91892,1.95038l-1.87494,10.96655" fill="none" stroke="#ff7300" stroke-width="0.75" stroke-linecap="round"/><path d="M245.2789,177.61369l3.56349,0.60925" fill="none" stroke="#272727" stroke-width="0.75" stroke-linecap="round"/><path d="M232.28452,183.86529c0,-0.99831 0.80929,-1.8076 1.8076,-1.8076c0.99831,0 1.8076,0.80929 1.8076,1.8076c0,0.99831 -0.80929,1.8076 -1.8076,1.8076c-0.99831,0 -1.8076,-0.80929 -1.8076,-1.8076z" fill="#e3d1c3" stroke="#cc8f8f" stroke-width="1" stroke-linecap="butt"/><path d="M244.21502,182.83831c0,-0.99831 0.80929,-1.8076 1.8076,-1.8076c0.99831,0 1.8076,0.80929 1.8076,1.8076c0,0.99831 -0.80929,1.8076 -1.8076,1.8076c-0.99831,0 -1.8076,-0.80929 -1.8076,-1.8076z" fill="#e3d1c3" stroke="#cc8f8f" stroke-width="1" stroke-linecap="butt"/><path d="M208.0625,211.9375v-63.875h63.875v63.875z" fill="none" stroke="none" stroke-width="0" stroke-linecap="butt"/></g></g></svg>