<svg version="1.1" xmlns="http://www.w3.org/2000/svg" xmlns:xlink="http://www.w3.org/1999/xlink" width="63.875" height="63.875" viewBox="0,0,63.875,63.875"><g transform="translate(-208.0625,-148.0625)"><g data-paper-data="{&quot;isPaintingLayer&quot;:true}" fill-rule="nonzero" stroke-linejoin="miter" stroke-miterlimit="10" stroke-dasharray="" stroke-dashoffset="0" style="mix-blend-mode: normal"><path d="M246.30294,178.89057c-0.14195,-0.88318 -0.54958,-3.41939 -0.54958,-3.41939l1.94397,-0.31245c0,0 0.40763,2.53622 0.54958,3.41939c0.08978,0.55857 -0.13879,1.47213 -0.79103,1.53023c-0.71174,0.0634 -1.06317,-0.65921 -1.15294,-1.21779z" fill="#3a3a3a" stroke="#272727" stroke-width="0.75" stroke-linecap="butt"/><path d="M246.68617,175.07119l-0.13777,-0.85719" fill="none" stroke="#272727" stroke-width="0.75" stroke-linecap="round"/><path d="M245.26198,173.53477l-1.76552,-10.9847c0,0 0.54757,-1.87833 0.93831,-1.94112c0.41972,-0.06746 1.49932,1.54933 1.49932,1.54933l1.76552,10.9847" fill="none" stroke="#ff7300" stroke-width="0.75" stroke-linecap="round"/><path d="M248.24805,173.39812l-3.56939,0.57369" fill="none" stroke="#272727" stroke-width="0.75" stroke-linecap="round"/><path d="M232.28452,183.86529c0,-0.99831 0.80929,-1.8076 1.8076,-1.8076c0.99831,0 1.8076,0.80929 1.8076,1.8076c0,0.99831 -0.80929,1.8076 -1.8076,1.8076c-0.99831,0 -1.8076,-0.80929 -1.8076,-1.8076z" fill="#e3d1c3" stroke="#cc8f8f" stroke-width="1" stroke-linecap="butt"/><path d="M245.35828,179.26015c-0.32226,-0.94487 0.18246,-1.97207 1.12732,-2.29434c0.94487,-0.32226 1.97207,0.18246 2.29434,1.12732c0.32226,0.94487 -0.18246,1.97207 -1.12732,2.29434c-0.94487,0.32226 -1.97207,-0.18246 -2.29434,-1.12732z" fill="#e3d1c3" stroke="#cc8f8f" stroke-width="1" stroke-linecap="butt"/><path d="M208.0625,211.9375v-63.875h63.875v63.875z" fill="none" stroke="none" stroke-width="0" stroke-linecap="butt"/></g></g></svg>