<svg version="1.1" xmlns="http://www.w3.org/2000/svg" xmlns:xlink="http://www.w3.org/1999/xlink" width="63.875" height="63.875" viewBox="0,0,63.875,63.875"><defs><linearGradient x1="249.65302" y1="165.05905" x2="255.33873" y2="171.06595" gradientUnits="userSpaceOnUse" id="color-1"><stop offset="0" stop-color="#b1b1b1" stop-opacity="0"/><stop offset="1" stop-color="#b1b1b1"/></linearGradient></defs><g transform="translate(-208.0625,-148.0625)"><g data-paper-data="{&quot;isPaintingLayer&quot;:true}" fill-rule="nonzero" stroke-linejoin="miter" stroke-miterlimit="10" stroke-dasharray="" stroke-dashoffset="0" style="mix-blend-mode: normal"><path d="M251.27773,174.90981c0,0 -1.00876,-1.74025 -2.32281,-2.70614c-1.66122,-1.22107 -3.4879,-1.42575 -3.4879,-1.42575l5.07782,-9.04016c0,0 2.96222,0.30698 6.09378,1.98562c2.99285,1.60429 4.3861,3.37372 4.3861,3.37372c0,0 -0.96539,0.04862 -1.69204,0.63107c-1.6602,1.33073 -8.05495,7.18166 -8.05495,7.18166z" fill="url(#color-1)" stroke="none" stroke-width="0" stroke-linecap="butt"/><path d="M247.30686,178.89463c0.65625,-0.60785 2.54081,-2.35341 2.54081,-2.35341l1.33795,1.44448c0,0 -1.88456,1.74556 -2.54081,2.35341c-0.41505,0.38444 -1.30204,0.7008 -1.71206,0.19024c-0.44742,-0.55714 -0.04095,-1.25028 0.37411,-1.63472z" fill="#3a3a3a" stroke="#272727" stroke-width="0.75" stroke-linecap="butt"/><path d="M251.33472,176.50573l-0.63694,0.58996" fill="none" stroke="#272727" stroke-width="0.75" stroke-linecap="round"/><path d="M251.18664,175.05856l8.16228,-7.56028c0,0 1.86674,-0.58586 2.13566,-0.29551c0.28887,0.31188 -0.45795,2.10681 -0.45795,2.10681l-8.16228,7.56028" fill="none" stroke="#ff7300" stroke-width="0.75" stroke-linecap="round"/><path d="M250.4995,174.81547l2.45665,2.65227" fill="none" stroke="#272727" stroke-width="0.75" stroke-linecap="round"/><path d="M232.28452,183.86529c0,-0.99831 0.80929,-1.8076 1.8076,-1.8076c0.99831,0 1.8076,0.80929 1.8076,1.8076c0,0.99831 -0.80929,1.8076 -1.8076,1.8076c-0.99831,0 -1.8076,-0.80929 -1.8076,-1.8076z" fill="#e3d1c3" stroke="#cc8f8f" stroke-width="1" stroke-linecap="butt"/><path d="M246.47549,178.31343c0.60761,-0.79211 1.7423,-0.94168 2.53441,-0.33408c0.79211,0.60761 0.94168,1.7423 0.33408,2.53441c-0.60761,0.79211 -1.7423,0.94168 -2.53441,0.33408c-0.79211,-0.60761 -0.94168,-1.7423 -0.33408,-2.53441z" fill="#e3d1c3" stroke="#cc8f8f" stroke-width="1" stroke-linecap="butt"/><path d="M208.0625,211.9375v-63.875h63.875v63.875z" fill="none" stroke="none" stroke-width="0" stroke-linecap="butt"/></g></g></svg>