<svg version="1.1" xmlns="http://www.w3.org/2000/svg" xmlns:xlink="http://www.w3.org/1999/xlink" width="63.875" height="63.875" viewBox="0,0,63.875,63.875"><g transform="translate(-208.0625,-148.0625)"><g data-paper-data="{&quot;isPaintingLayer&quot;:true}" fill-rule="nonzero" stroke-linejoin="miter" stroke-miterlimit="10" stroke-dasharray="" stroke-dashoffset="0" style="mix-blend-mode: normal"><g stroke-width="0.75"><path d="M256.60054,181.14218c0.00476,0.03693 -0.26938,0.65319 -1.00055,0.85379c-0.86327,0.23685 -11.34139,1.58971 -11.95925,1.47629c-0.502,-0.09215 -0.81048,-0.40883 -0.83466,-0.59654c-0.03049,-0.23668 0.06173,-0.76087 0.7782,-1.03498c1.10846,-0.42407 10.86209,-1.64421 11.98672,-1.45169c0.53618,0.09178 1.00446,0.55849 1.02954,0.75313z" fill="#666664" stroke="#383331" stroke-linecap="butt"/><path d="M259.48394,179.33611c0.09776,0.05505 -2.09875,0.92339 -2.00455,1.56641c0.09621,0.65677 2.48117,1.08881 2.3911,1.1752c-0.40879,0.39216 -3.34384,0.10321 -3.70222,-0.15411c-0.22424,-0.161 -0.275,-0.42957 -0.31038,-0.70427c-0.03968,-0.30803 -0.07703,-0.64354 0.13554,-0.87736c0.27995,-0.30793 3.00377,-1.27998 3.49051,-1.0059z" fill="#cfcfcf" stroke="#616b95" stroke-linecap="butt"/><path d="M259.67246,180.03227l-0.36662,0.38575l0.63748,0.18989l0.99848,-0.82484l1.15455,0.3464l1.04008,-0.10081l-0.72817,0.90669l-1.29441,-0.46952l-0.80279,0.47001l-0.4694,0.4097" fill="none" stroke="#00e3ff" stroke-linecap="round"/></g><path d="M244.59625,182.73816c-0.12756,-0.99013 0.57169,-1.89619 1.56182,-2.02375c0.99013,-0.12756 1.89619,0.57169 2.02375,1.56182c0.12756,0.99013 -0.57169,1.89619 -1.56182,2.02375c-0.99013,0.12756 -1.89619,-0.57169 -2.02375,-1.56182z" fill="#e3d1c3" stroke="#cc8f8f" stroke-width="1" stroke-linecap="butt"/><path d="M248.73106,182.11526c-0.12756,-0.99013 0.57169,-1.89619 1.56182,-2.02375c0.99013,-0.12756 1.89619,0.57169 2.02375,1.56182c0.12756,0.99013 -0.57169,1.89619 -1.56182,2.02375c-0.99013,0.12756 -1.89619,-0.57169 -2.02375,-1.56182z" fill="#e3d1c3" stroke="#cc8f8f" stroke-width="1" stroke-linecap="butt"/><path d="M208.0625,211.9375v-63.875h63.875v63.875z" fill="none" stroke="none" stroke-width="0" stroke-linecap="butt"/></g></g></svg>