<svg version="1.1" xmlns="http://www.w3.org/2000/svg" xmlns:xlink="http://www.w3.org/1999/xlink" width="63.875" height="63.875" viewBox="0,0,63.875,63.875"><g transform="translate(-208.0625,-148.0625)"><g data-paper-data="{&quot;isPaintingLayer&quot;:true}" fill-rule="nonzero" stroke-linejoin="miter" stroke-miterlimit="10" stroke-dasharray="" stroke-dashoffset="0" style="mix-blend-mode: normal"><g stroke-width="0.75"><path d="M250.76934,183.19122c0,0.03724 -0.35063,0.61342 -1.10144,0.71895c-0.88646,0.1246 -11.45155,0.12755 -12.04986,-0.06389c-0.48611,-0.15554 -0.7516,-0.50904 -0.7516,-0.6983c0,-0.23864 0.15844,-0.74675 0.90406,-0.92706c1.15356,-0.27896 10.98314,-0.24284 12.07396,0.0918c0.52006,0.15954 0.92487,0.68226 0.92487,0.8785z" fill="#666664" stroke="#383331" stroke-linecap="butt"/><path d="M253.85987,181.76838c0.08992,0.06709 -2.19953,0.64766 -2.18827,1.29744c0.0115,0.66368 2.32171,1.39691 2.22134,1.47109c-0.45555,0.33671 -3.32962,-0.32489 -3.65218,-0.62589c-0.20183,-0.18833 -0.21786,-0.46119 -0.21785,-0.73816c0,-0.31058 0.00583,-0.64811 0.24653,-0.85285c0.317,-0.26964 3.1427,-0.88569 3.59043,-0.55166z" fill="#cfcfcf" stroke="#616b95" stroke-linecap="butt"/><path d="M253.95789,182.48292l-0.17294,0.42967l0.33615,0.41137l-0.16321,0.48308" fill="none" stroke="#00e3ff" stroke-linecap="round"/></g><path d="M238.65952,183.24029c0,-0.99831 0.80929,-1.8076 1.8076,-1.8076c0.99831,0 1.8076,0.80929 1.8076,1.8076c0,0.99831 -0.80929,1.8076 -1.8076,1.8076c-0.99831,0 -1.8076,-0.80929 -1.8076,-1.8076z" fill="#e3d1c3" stroke="#cc8f8f" stroke-width="1" stroke-linecap="butt"/><path d="M242.84002,183.15081c0,-0.99831 0.80929,-1.8076 1.8076,-1.8076c0.99831,0 1.8076,0.80929 1.8076,1.8076c0,0.99831 -0.80929,1.8076 -1.8076,1.8076c-0.99831,0 -1.8076,-0.80929 -1.8076,-1.8076z" fill="#e3d1c3" stroke="#cc8f8f" stroke-width="1" stroke-linecap="butt"/><path d="M208.0625,211.9375v-63.875h63.875v63.875z" fill="none" stroke="none" stroke-width="0" stroke-linecap="butt"/></g></g></svg>