<svg version="1.1" xmlns="http://www.w3.org/2000/svg" xmlns:xlink="http://www.w3.org/1999/xlink" width="127.6414" height="127.6414" viewBox="0,0,127.6414,127.6414"><g transform="translate(-176.1793,-116.1793)"><g data-paper-data="{&quot;isPaintingLayer&quot;:true}" fill-rule="nonzero" stroke-linecap="butt" stroke-linejoin="miter" stroke-miterlimit="10" stroke-dasharray="" stroke-dashoffset="0" style="mix-blend-mode: normal"><path d="M214.13141,180c0,-14.28684 11.58176,-25.8686 25.8686,-25.8686c14.28684,0 25.8686,11.58176 25.8686,25.8686c0,14.28684 -11.58176,25.8686 -25.8686,25.8686c-14.28684,0 -25.8686,-11.58176 -25.8686,-25.8686z" fill="#959595" stroke="#535353" stroke-width="3"/><path d="M225.11511,180c0,-8.2207 6.66419,-14.8849 14.8849,-14.8849c8.2207,0 14.8849,6.66419 14.8849,14.8849c0,8.2207 -6.66419,14.8849 -14.8849,14.8849c-8.2207,0 -14.8849,-6.66419 -14.8849,-14.8849z" fill="#000000" stroke="#535353" stroke-width="3"/><path d="M235.98155,159.73442c0,-2.21933 1.79912,-4.01845 4.01845,-4.01845c2.21933,0 4.01845,1.79912 4.01845,4.01845c0,2.21933 -1.79912,4.01845 -4.01845,4.01845c-2.21933,0 -4.01845,-1.79912 -4.01845,-4.01845z" fill="#959595" stroke="#535353" stroke-width="3"/><path d="M235.98156,200.56776c0,-2.21933 1.79913,-4.01846 4.01846,-4.01846c2.21933,0 4.01845,1.79913 4.01845,4.01846c0,2.21933 -1.79912,4.01845 -4.01845,4.01845c-2.21933,0 -4.01846,-1.79912 -4.01846,-4.01845z" fill="#959595" stroke="#535353" stroke-width="3"/><path d="M260.41668,176.13263c2.21933,0 4.01846,1.79912 4.01846,4.01845c0,2.21933 -1.79913,4.01846 -4.01846,4.01846c-2.21933,0 -4.01846,-1.79913 -4.01846,-4.01846c0,-2.21933 1.79913,-4.01845 4.01846,-4.01845z" fill="#959595" stroke="#535353" stroke-width="3"/><path d="M219.58334,176.13264c2.21933,0 4.01846,1.79912 4.01846,4.01845c0,2.21933 -1.79913,4.01845 -4.01846,4.01845c-2.21933,0 -4.01845,-1.79912 -4.01845,-4.01845c0,-2.21933 1.79912,-4.01845 4.01845,-4.01845z" fill="#959595" stroke="#535353" stroke-width="3"/><path d="M246.70762,160.36212c1.10132,-1.92679 3.55609,-2.59597 5.48288,-1.49464c1.92679,1.10132 2.59597,3.55609 1.49464,5.48288c-1.10132,1.92679 -3.55609,2.59597 -5.48288,1.49464c-1.92679,-1.10132 -2.59597,-3.55609 -1.49464,-5.48288z" fill="#959595" stroke="#535353" stroke-width="3"/><path d="M226.44447,195.81301c1.10132,-1.92679 3.55609,-2.59596 5.48288,-1.49464c1.92679,1.10132 2.59597,3.55609 1.49464,5.48288c-1.10132,1.92679 -3.55609,2.59596 -5.48288,1.49464c-1.92679,-1.10132 -2.59597,-3.55609 -1.49464,-5.48288z" fill="#959595" stroke="#535353" stroke-width="3"/><path d="M259.78438,186.7245c1.92679,1.10132 2.59596,3.55609 1.49464,5.48288c-1.10132,1.92679 -3.55609,2.59597 -5.48288,1.49464c-1.92679,-1.10132 -2.59596,-3.55609 -1.49464,-5.48288c1.10132,-1.92679 3.55609,-2.59597 5.48288,-1.49464z" fill="#959595" stroke="#535353" stroke-width="3"/><path d="M223.74353,166.00108c1.92679,1.10132 2.59597,3.55609 1.49465,5.48288c-1.10132,1.92679 -3.55609,2.59596 -5.48289,1.49464c-1.92679,-1.10132 -2.59596,-3.55609 -1.49464,-5.48288c1.10132,-1.92679 3.55609,-2.59596 5.48288,-1.49464z" fill="#959595" stroke="#535353" stroke-width="3"/><path d="M235.98155,159.73442c0,-2.21933 1.79912,-4.01845 4.01845,-4.01845c2.21933,0 4.01845,1.79912 4.01845,4.01845c0,2.21933 -1.79912,4.01845 -4.01845,4.01845c-2.21933,0 -4.01845,-1.79912 -4.01845,-4.01845z" fill="#959595" stroke="#535353" stroke-width="3"/><path d="M235.98156,200.56776c0,-2.21933 1.79913,-4.01846 4.01846,-4.01846c2.21933,0 4.01845,1.79913 4.01845,4.01846c0,2.21933 -1.79912,4.01845 -4.01845,4.01845c-2.21933,0 -4.01846,-1.79912 -4.01846,-4.01845z" fill="#959595" stroke="#535353" stroke-width="3"/><path d="M260.41668,176.13263c2.21933,0 4.01846,1.79912 4.01846,4.01845c0,2.21933 -1.79913,4.01846 -4.01846,4.01846c-2.21933,0 -4.01846,-1.79913 -4.01846,-4.01846c0,-2.21933 1.79913,-4.01845 4.01846,-4.01845z" fill="#959595" stroke="#535353" stroke-width="3"/><path d="M219.58334,176.13264c2.21933,0 4.01846,1.79912 4.01846,4.01845c0,2.21933 -1.79913,4.01845 -4.01846,4.01845c-2.21933,0 -4.01845,-1.79912 -4.01845,-4.01845c0,-2.21933 1.79912,-4.01845 4.01845,-4.01845z" fill="#959595" stroke="#535353" stroke-width="3"/><path d="M255.56899,166.38574c1.91113,-1.12828 4.37506,-0.49366 5.50334,1.41747c1.12828,1.91113 0.49366,4.37506 -1.41747,5.50334c-1.91113,1.12828 -4.37506,0.49366 -5.50334,-1.41747c-1.12828,-1.91113 -0.49366,-4.37506 1.41747,-5.50334z" fill="#959595" stroke="#535353" stroke-width="3"/><path d="M220.40626,187.14493c1.91113,-1.12828 4.37506,-0.49366 5.50334,1.41747c1.12828,1.91113 0.49366,4.37506 -1.41747,5.50334c-1.91113,1.12828 -4.37506,0.49366 -5.50334,-1.41747c-1.12828,-1.91113 -0.49366,-4.37506 1.41747,-5.50334z" fill="#959595" stroke="#535353" stroke-width="3"/><path d="M253.87056,195.76418c1.12828,1.91113 0.49366,4.37506 -1.41747,5.50334c-1.91113,1.12828 -4.37506,0.49366 -5.50334,-1.41747c-1.12828,-1.91113 -0.49366,-4.37505 1.41747,-5.50333c1.91113,-1.12828 4.37506,-0.49366 5.50334,1.41747z" fill="#959595" stroke="#535353" stroke-width="3"/><path d="M232.82686,159.90939c1.12828,1.91113 0.49366,4.37506 -1.41747,5.50334c-1.91113,1.12828 -4.37505,0.49365 -5.50334,-1.41747c-1.12828,-1.91113 -0.49366,-4.37505 1.41747,-5.50333c1.91113,-1.12828 4.37505,-0.49366 5.50333,1.41747z" fill="#959595" stroke="#535353" stroke-width="3"/><path d="M303.8207,180.00001c0,35.2472 -28.5735,63.8207 -63.8207,63.8207c-35.2472,0 -63.8207,-28.5735 -63.8207,-63.8207c0,-35.2472 28.5735,-63.8207 63.8207,-63.8207c35.2472,0 63.8207,28.5735 63.8207,63.8207z" fill="none" stroke="none" stroke-width="0"/></g></g></svg>