<svg version="1.1" xmlns="http://www.w3.org/2000/svg" xmlns:xlink="http://www.w3.org/1999/xlink" width="127.6414" height="127.6414" viewBox="0,0,127.6414,127.6414"><g transform="translate(-176.1793,-116.1793)"><g data-paper-data="{&quot;isPaintingLayer&quot;:true}" fill-rule="nonzero" stroke-linejoin="miter" stroke-miterlimit="10" stroke-dasharray="" stroke-dashoffset="0" style="mix-blend-mode: normal"><path d="M241.34898,180c0,-4.44389 3.60248,-8.04637 8.04637,-8.04637c4.44389,0 9.88892,4.60098 9.75318,7.80254c-0.14754,3.47995 -5.30929,8.2902 -9.75318,8.2902c-4.44389,0 -8.04637,-3.60248 -8.04637,-8.04637z" fill="#943d3d" stroke="#572020" stroke-width="3.5" stroke-linecap="butt"/><path d="M229.75,193.18966v-26.37931c0,0 6.764,4 10.16667,4c3.43044,0 10.33333,0 10.33333,0v18.37931c0,0 -6.764,0 -10.16667,0c-3.43044,0 -10.33333,4 -10.33333,4z" fill="#949494" stroke="#565656" stroke-width="3.5" stroke-linecap="butt"/><path d="M240,184v-8" fill="none" stroke="#565656" stroke-width="3.5" stroke-linecap="round"/><path d="M303.8207,180.00001c0,35.2472 -28.5735,63.8207 -63.8207,63.8207c-35.2472,0 -63.8207,-28.5735 -63.8207,-63.8207c0,-35.2472 28.5735,-63.8207 63.8207,-63.8207c35.2472,0 63.8207,28.5735 63.8207,63.8207z" fill="none" stroke="none" stroke-width="0" stroke-linecap="butt"/></g></g></svg>