<svg version="1.1" xmlns="http://www.w3.org/2000/svg" xmlns:xlink="http://www.w3.org/1999/xlink" width="127.64141" height="127.64141" viewBox="0,0,127.64141,127.64141"><g transform="translate(-176.17929,-116.17929)"><g data-paper-data="{&quot;isPaintingLayer&quot;:true}" fill-rule="nonzero" stroke-linejoin="miter" stroke-miterlimit="10" stroke-dasharray="" stroke-dashoffset="0" style="mix-blend-mode: normal"><path d="M240,141.94002v76.11997" fill="none" stroke="#000000" stroke-width="3.5" stroke-linecap="round"/><path d="M303.8207,180c0,35.2472 -28.5735,63.8207 -63.8207,63.8207c-35.2472,0 -63.8207,-28.5735 -63.8207,-63.8207c0,-35.2472 28.5735,-63.8207 63.8207,-63.8207c35.2472,0 63.8207,28.5735 63.8207,63.8207z" fill="none" stroke="none" stroke-width="0" stroke-linecap="butt"/><path d="M230.37461,141.94002c0,0 6.53378,-1 9.72541,-1c3.22496,0 9.52538,1 9.52538,1" fill="none" stroke="#535353" stroke-width="7.5" stroke-linecap="round"/><path d="M249.6254,218.05999c0,0 -6.53378,1 -9.7254,1c-3.22496,0 -9.52539,-1 -9.52539,-1" fill="none" stroke="#535353" stroke-width="7.5" stroke-linecap="round"/><path d="M278.05999,180h-76.11997" fill="none" stroke="#000000" stroke-width="3.5" stroke-linecap="round"/><path d="M278.05999,170.37461c0,0 1,6.53378 1,9.7254c0,3.22496 -1,9.52539 -1,9.52539" fill="none" stroke="#535353" stroke-width="7.5" stroke-linecap="round"/><path d="M201.94002,189.6254c0,0 -1,-6.53378 -1,-9.72541c0,-3.22496 1,-9.52538 1,-9.52538" fill="none" stroke="#535353" stroke-width="7.5" stroke-linecap="round"/><path d="M266.91247,153.08753l-53.82495,53.82495" fill="none" stroke="#000000" stroke-width="3.5" stroke-linecap="round"/><path d="M260.10629,146.28134c0,0 5.32719,3.91297 7.58401,6.16979c2.28039,2.28039 6.02836,7.44257 6.02836,7.44257" fill="none" stroke="#535353" stroke-width="7.5" stroke-linecap="round"/><path d="M219.89371,213.71866c0,0 -5.32719,-3.91297 -7.58401,-6.16979c-2.28039,-2.28039 -6.02836,-7.44257 -6.02836,-7.44257" fill="none" stroke="#535353" stroke-width="7.5" stroke-linecap="round"/><path d="M213.08753,153.08753l53.82495,53.82495" fill="none" stroke="#000000" stroke-width="3.5" stroke-linecap="round"/><path d="M206.28134,159.89371c0,0 3.91297,-5.32719 6.16979,-7.58401c2.28039,-2.28039 7.44257,-6.02836 7.44257,-6.02836" fill="none" stroke="#535353" stroke-width="7.5" stroke-linecap="round"/><path d="M273.71866,200.10629c0,0 -3.91297,5.32719 -6.16979,7.58401c-2.28039,2.28039 -7.44257,6.02836 -7.44257,6.02836" fill="none" stroke="#535353" stroke-width="7.5" stroke-linecap="round"/><path d="M209.44003,180c0,-16.87782 13.68216,-30.55998 30.55998,-30.55998c16.87782,0 30.55998,13.68216 30.55998,30.55998c0,16.87782 -13.68216,30.55998 -30.55998,30.55998c-16.87782,0 -30.55998,-13.68216 -30.55998,-30.55998z" fill="#959595" stroke="#535353" stroke-width="3" stroke-linecap="butt"/><path d="M236.60747,176.16728c1.58515,-1.56121 3.39254,-5.79268 3.39254,-5.79268c0,0 1.72015,4.33663 3.28641,5.9029c1.63891,1.63891 6.33898,3.7225 6.33898,3.7225c0,0 -4.51671,1.90022 -6.12094,3.50446c-1.60423,1.60423 -3.50445,6.12094 -3.50445,6.12094c0,0 -1.80855,-4.47211 -3.39394,-6.08144c-1.62222,-1.64672 -6.23145,-3.68931 -6.23145,-3.68931c0,0 4.6104,-2.08942 6.23285,-3.68737z" fill="#ff0000" stroke="#535353" stroke-width="3" stroke-linecap="butt"/></g></g></svg>