<svg version="1.1" xmlns="http://www.w3.org/2000/svg" xmlns:xlink="http://www.w3.org/1999/xlink" width="127.6414" height="127.6414" viewBox="0,0,127.6414,127.6414"><g transform="translate(-176.1793,-116.1793)"><g data-paper-data="{&quot;isPaintingLayer&quot;:true}" fill-rule="nonzero" stroke-linecap="butt" stroke-linejoin="miter" stroke-miterlimit="10" stroke-dasharray="" stroke-dashoffset="0" style="mix-blend-mode: normal"><path d="M226.96655,185.97199c-0.7777,-1.84722 -3.46173,-5.7721 -3.46173,-5.7721c0,0 2.82932,-4.4965 3.67228,-6.56852c0.7571,-1.86098 1.15564,-5.29862 1.15564,-5.29862c0,0 4.04223,-0.65993 6.02677,-1.47487c1.93693,-0.7954 5.7411,-3.35756 5.7411,-3.35756c0,0 4.03493,2.68575 5.99698,3.50548c1.89086,0.78999 5.56967,1.32695 5.56967,1.32695c0,0 0.62283,3.91787 1.43066,5.86812c0.80306,1.93876 3.40208,5.79914 3.40208,5.79914c0,0 -2.58894,3.83605 -3.38995,5.76985c-0.80981,1.95505 -1.44279,5.89741 -1.44279,5.89741c0,0 -3.81939,0.59522 -5.74022,1.39748c-1.93579,0.80851 -5.82997,3.43497 -5.82997,3.43497c0,0 -3.74391,-2.53789 -5.66758,-3.32808c-1.99517,-0.81956 -6.09676,-1.50438 -6.09676,-1.50438c0,0 -0.53778,-3.72763 -1.36618,-5.69527z" fill="#adadad" stroke="#535353" stroke-width="3"/><path d="M231.57501,180.00001c0,-4.653 3.772,-8.425 8.425,-8.425c4.653,0 8.425,3.772 8.425,8.425c0,4.653 -3.772,8.425 -8.425,8.425c-4.653,0 -8.425,-3.772 -8.425,-8.425z" fill="#959595" stroke="#535353" stroke-width="3"/><path d="M303.8207,180.00001c0,35.2472 -28.5735,63.8207 -63.8207,63.8207c-35.2472,0 -63.8207,-28.5735 -63.8207,-63.8207c0,-35.2472 28.5735,-63.8207 63.8207,-63.8207c35.2472,0 63.8207,28.5735 63.8207,63.8207z" fill="none" stroke="none" stroke-width="0"/></g></g></svg>