<svg version="1.1" xmlns="http://www.w3.org/2000/svg" xmlns:xlink="http://www.w3.org/1999/xlink" width="127.6414" height="127.6414" viewBox="0,0,127.6414,127.6414"><g transform="translate(-176.1793,-116.1793)"><g data-paper-data="{&quot;isPaintingLayer&quot;:true}" fill-rule="nonzero" stroke-linejoin="miter" stroke-miterlimit="10" stroke-dasharray="" stroke-dashoffset="0" style="mix-blend-mode: normal"><path d="M217.90482,180c0,0 5.00008,-3.89915 10.61436,-3.89915c3.96287,0 8.23175,3.89915 11.26421,3.89915c3.19657,0 7.79421,3.3215 11.98627,3.3215c5.51355,0 10.32552,-3.3215 10.32552,-3.3215" fill="none" stroke="#ff0000" stroke-width="2.5" stroke-linecap="round"/><path d="M228.17249,169.22124c0,0 4.56486,-0.95535 6.54491,-1.83383c1.94377,-0.86238 5.22856,-3.38966 5.22856,-3.38966c0,0 2.83437,2.62778 4.64344,3.32496c1.80184,0.69439 6.18937,0.84978 6.18937,0.84978c0,0 -1.68349,7.77213 -1.50741,11.56774c0.17346,3.73896 2.55615,11.03854 2.55615,11.03854c0,0 -3.72622,0.5035 -5.37473,1.26702c-2.02536,0.93806 -5.88129,3.94626 -5.88129,3.94626c0,0 -3.01893,-2.58481 -4.80083,-3.2386c-1.98049,-0.72666 -6.54943,-0.92593 -6.54943,-0.92593c0,0 1.60058,-7.79671 1.42203,-11.64553c-0.17067,-3.67893 -2.47078,-10.96075 -2.47078,-10.96075z" fill="#afafaf" stroke="#535353" stroke-width="4.5" stroke-linecap="butt"/><path d="M237.5,180c0,-1.38071 1.11929,-2.5 2.5,-2.5c1.38071,0 2.5,1.11929 2.5,2.5c0,1.38071 -1.11929,2.5 -2.5,2.5c-1.38071,0 -2.5,-1.11929 -2.5,-2.5z" fill="#535353" stroke="none" stroke-width="0.5" stroke-linecap="butt"/><path d="M233.87343,180c0,-3.38361 2.74296,-6.12657 6.12657,-6.12657c3.38361,0 6.12657,2.74296 6.12657,6.12657c0,3.38361 -2.74296,6.12657 -6.12657,6.12657c-3.38361,0 -6.12657,-2.74296 -6.12657,-6.12657z" fill="none" stroke="#7e7e7e" stroke-width="1.5" stroke-linecap="butt"/><path d="M303.8207,180.00001c0,35.2472 -28.5735,63.8207 -63.8207,63.8207c-35.2472,0 -63.8207,-28.5735 -63.8207,-63.8207c0,-35.2472 28.5735,-63.8207 63.8207,-63.8207c35.2472,0 63.8207,28.5735 63.8207,63.8207z" fill="none" stroke="none" stroke-width="0" stroke-linecap="butt"/></g></g></svg>